# Blender 4.5.13 LTS
# www.blender.org
o fancy_picture_frame_01
v 0.292240 0.456184 0.009997
v 0.292240 0.456184 0.009997
v 0.300764 0.463459 0.009997
v 0.300764 0.463459 0.009997
v 0.274800 0.437472 0.004799
v 0.274800 0.437472 0.004799
v 0.282583 0.446269 0.004101
v 0.282583 0.446269 0.004101
v 0.282583 0.446269 0.004101
v 0.282583 0.446269 0.004101
v 0.287412 0.451372 0.008947
v 0.287412 0.451372 0.008947
v 0.283811 0.447524 0.005333
v 0.283811 0.447524 0.005333
v 0.265629 0.428188 0.000712
v 0.265629 0.428188 0.000712
v 0.265397 0.427804 -0.003663
v 0.265397 0.427804 -0.003663
v 0.265397 0.427804 -0.003663
v 0.265397 0.427804 -0.003663
v 0.261330 0.424031 -0.003663
v 0.261330 0.424031 -0.003663
v 0.261330 0.424031 -0.006671
v 0.261330 0.424031 -0.006671
v 0.265455 0.427900 -0.002566
v 0.265455 0.427900 -0.002566
v 0.261330 0.424031 -0.004469
v 0.261330 0.424031 -0.004469
v 0.266249 0.428816 0.000988
v 0.266249 0.428816 0.000988
v 0.300764 0.463459 -0.009997
v 0.300764 0.463459 -0.009997
v 0.300764 0.463459 -0.009997
v 0.260331 0.427900 -0.002566
v 0.260273 0.427804 -0.003663
v 0.260273 0.427804 -0.003663
v 0.259840 0.424490 -0.004469
v 0.259840 0.424490 -0.006671
v 0.277459 0.446269 0.004101
v 0.277459 0.446269 0.004101
v 0.269676 0.437472 0.004799
v 0.295610 0.464126 0.009997
v 0.287117 0.456184 0.009997
v 0.259840 0.424490 -0.003663
v 0.261125 0.428816 0.000988
v 0.282288 0.451372 0.008947
v 0.278687 0.447524 0.005333
v 0.260505 0.428188 0.000712
v 0.295610 0.464126 -0.009997
v 0.295610 0.464126 -0.009997
v 0.301515 0.459238 0.009997
v 0.292240 0.451296 0.009997
v 0.265397 0.422916 -0.003663
v 0.265397 0.422916 -0.003663
v 0.265629 0.423300 0.000712
v 0.283811 0.442636 0.005333
v 0.287412 0.446484 0.008947
v 0.282583 0.441381 0.004101
v 0.282583 0.441381 0.004101
v 0.261878 0.422553 -0.003663
v 0.274800 0.432584 0.004799
v 0.261878 0.422553 -0.006671
v 0.265455 0.423012 -0.002566
v 0.261878 0.422553 -0.004469
v 0.266249 0.423928 0.000988
v 0.301515 0.459238 -0.009997
v 0.301515 0.459238 -0.009997
v 0.300764 0.463459 0.008032
v 0.300764 0.463459 0.008032
v 0.295610 0.464126 0.008032
v 0.301515 0.459238 0.008032
v 0.299322 0.462224 0.009997
v 0.299322 0.462224 0.009997
v 0.294172 0.462892 0.009997
v 0.300073 0.458004 0.009997
v 0.292240 0.421950 0.009997
v 0.265397 0.397369 -0.003663
v 0.265397 0.397369 -0.003663
v 0.283811 0.414449 0.005333
v 0.282583 0.413362 0.004101
v 0.282583 0.413362 0.004101
v 0.261878 0.394543 -0.003663
v 0.261878 0.394543 -0.006671
v 0.265455 0.397452 -0.002566
v 0.261878 0.394543 -0.004469
v 0.266249 0.398245 0.000988
v 0.301496 0.428829 0.009997
v 0.265629 0.397702 0.000712
v 0.287412 0.417782 0.008947
v 0.274800 0.405743 0.004799
v 0.301496 0.428829 -0.009997
v 0.301496 0.428829 -0.009997
v 0.301496 0.428829 0.008032
v 0.300057 0.427760 0.009997
v 0.228833 0.427900 -0.002566
v 0.225698 0.424490 -0.004469
v 0.243889 0.446269 0.004101
v 0.243889 0.446269 0.004101
v 0.259844 0.464126 0.009997
v 0.248134 0.451372 0.008947
v 0.228986 0.428188 0.000712
v 0.259844 0.464126 -0.009997
v 0.259844 0.464126 -0.009997
v 0.228782 0.427804 -0.003663
v 0.228782 0.427804 -0.003663
v 0.225698 0.424490 -0.006671
v 0.237048 0.437472 0.004799
v 0.252378 0.456184 0.009997
v 0.225698 0.424490 -0.003663
v 0.229531 0.428816 0.000988
v 0.244968 0.447524 0.005333
v 0.259844 0.464126 0.008032
v 0.258580 0.462892 0.009997
v 0.263481 0.424657 -0.009997
v 0.257577 0.424657 -0.009997
v 0.263481 0.419769 -0.009997
v 0.263477 0.413011 -0.009997
v 0.221810 0.424657 -0.009997
v 0.257326 0.461513 -0.009997
v 0.298977 0.426216 -0.009997
v 0.298997 0.456625 -0.009997
v 0.293092 0.461513 -0.009997
v 0.298246 0.460845 -0.009997
v 0.300764 0.463459 -0.008170
v 0.300764 0.463459 -0.008170
v 0.295610 0.464126 -0.008170
v 0.301515 0.459238 -0.008170
v 0.301496 0.428829 -0.008170
v 0.259844 0.464126 -0.008170
v 0.257577 0.411534 -0.009997
v 0.221810 0.411534 -0.009997
v 0.221810 0.418157 -0.009997
v 0.257577 0.418157 -0.009997
v -0.292240 0.456184 0.009997
v -0.292240 0.456184 0.009997
v -0.300764 0.463459 0.009997
v -0.300764 0.463459 0.009997
v -0.274800 0.437472 0.004799
v -0.274800 0.437472 0.004799
v -0.282583 0.446269 0.004101
v -0.282583 0.446269 0.004101
v -0.282583 0.446269 0.004101
v -0.282583 0.446269 0.004101
v -0.287412 0.451372 0.008947
v -0.287412 0.451372 0.008947
v -0.283811 0.447524 0.005333
v -0.283811 0.447524 0.005333
v -0.265629 0.428188 0.000712
v -0.265629 0.428188 0.000712
v -0.265397 0.427804 -0.003663
v -0.265397 0.427804 -0.003663
v -0.265397 0.427804 -0.003663
v -0.265397 0.427804 -0.003663
v -0.261330 0.424031 -0.003663
v -0.261330 0.424031 -0.003663
v -0.261330 0.424031 -0.006671
v -0.261330 0.424031 -0.006671
v -0.265455 0.427900 -0.002566
v -0.265455 0.427900 -0.002566
v -0.261330 0.424031 -0.004469
v -0.261330 0.424031 -0.004469
v -0.266249 0.428816 0.000988
v -0.266249 0.428816 0.000988
v 0.000000 0.456184 0.009997
v 0.000000 0.464126 0.009997
v 0.000000 0.437472 0.004799
v 0.000000 0.446269 0.004101
v 0.000000 0.446269 0.004101
v 0.000000 0.451372 0.008947
v 0.000000 0.447524 0.005333
v 0.000000 0.428188 0.000712
v 0.000000 0.427804 -0.003663
v 0.000000 0.427804 -0.003663
v 0.000000 0.424490 -0.003663
v 0.000000 0.424490 -0.006671
v 0.000000 0.427900 -0.002566
v 0.000000 0.424490 -0.004469
v 0.000000 0.428816 0.000988
v -0.300764 0.463459 -0.009997
v -0.300764 0.463459 -0.009997
v -0.300764 0.463459 -0.009997
v 0.000000 0.464126 -0.009997
v 0.000000 0.464126 -0.009997
v -0.260331 0.427900 -0.002566
v -0.260273 0.427804 -0.003663
v -0.260273 0.427804 -0.003663
v -0.259840 0.424490 -0.004469
v -0.259840 0.424490 -0.006671
v -0.277459 0.446269 0.004101
v -0.277459 0.446269 0.004101
v -0.269676 0.437472 0.004799
v -0.295610 0.464126 0.009997
v -0.287117 0.456184 0.009997
v -0.259840 0.424490 -0.003663
v -0.261125 0.428816 0.000988
v -0.282288 0.451372 0.008947
v -0.278687 0.447524 0.005333
v -0.260505 0.428188 0.000712
v -0.295610 0.464126 -0.009997
v -0.295610 0.464126 -0.009997
v -0.301515 0.459238 0.009997
v -0.292240 0.451296 0.009997
v -0.265397 0.422916 -0.003663
v -0.265397 0.422916 -0.003663
v -0.265629 0.423300 0.000712
v -0.283811 0.442636 0.005333
v -0.287412 0.446484 0.008947
v -0.282583 0.441381 0.004101
v -0.282583 0.441381 0.004101
v -0.261878 0.422553 -0.003663
v -0.274800 0.432584 0.004799
v -0.261878 0.422553 -0.006671
v -0.265455 0.423012 -0.002566
v -0.261878 0.422553 -0.004469
v -0.266249 0.423928 0.000988
v -0.301515 0.459238 -0.009997
v -0.301515 0.459238 -0.009997
v -0.300764 0.463459 0.008032
v -0.300764 0.463459 0.008032
v 0.000000 0.464126 0.008032
v -0.295610 0.464126 0.008032
v -0.301515 0.459238 0.008032
v -0.299322 0.462224 0.009997
v -0.299322 0.462224 0.009997
v 0.000000 0.462892 0.009997
v -0.294172 0.462892 0.009997
v -0.300073 0.458004 0.009997
v -0.292240 0.421950 0.009997
v -0.265397 0.397369 -0.003663
v -0.265397 0.397369 -0.003663
v -0.283811 0.414449 0.005333
v -0.282583 0.413362 0.004101
v -0.282583 0.413362 0.004101
v -0.261878 0.394543 -0.003663
v -0.261878 0.394543 -0.006671
v -0.265455 0.397452 -0.002566
v -0.261878 0.394543 -0.004469
v -0.266249 0.398245 0.000988
v -0.301496 0.428829 0.009997
v -0.265629 0.397702 0.000712
v -0.287412 0.417782 0.008947
v -0.274800 0.405743 0.004799
v -0.301496 0.428829 -0.009997
v -0.301496 0.428829 -0.009997
v -0.301496 0.428829 0.008032
v -0.300057 0.427760 0.009997
v -0.228833 0.427900 -0.002566
v -0.225698 0.424490 -0.004469
v -0.243889 0.446269 0.004101
v -0.243889 0.446269 0.004101
v -0.259844 0.464126 0.009997
v -0.248134 0.451372 0.008947
v -0.228986 0.428188 0.000712
v -0.259844 0.464126 -0.009997
v -0.259844 0.464126 -0.009997
v -0.228782 0.427804 -0.003663
v -0.228782 0.427804 -0.003663
v -0.225698 0.424490 -0.006671
v -0.237048 0.437472 0.004799
v -0.252378 0.456184 0.009997
v -0.225698 0.424490 -0.003663
v -0.229531 0.428816 0.000988
v -0.244968 0.447524 0.005333
v -0.259844 0.464126 0.008032
v -0.258580 0.462892 0.009997
v -0.263481 0.424657 -0.009997
v 0.000000 0.424657 -0.009997
v -0.257577 0.424657 -0.009997
v -0.263481 0.419769 -0.009997
v -0.263477 0.413011 -0.009997
v -0.221810 0.424657 -0.009997
v -0.257326 0.461513 -0.009997
v 0.000000 0.461513 -0.009997
v -0.298977 0.426216 -0.009997
v -0.298997 0.456625 -0.009997
v -0.293092 0.461513 -0.009997
v -0.298246 0.460845 -0.009997
v -0.300764 0.463459 -0.008170
v -0.300764 0.463459 -0.008170
v -0.295610 0.464126 -0.008170
v -0.301515 0.459238 -0.008170
v 0.000000 0.464126 -0.008170
v -0.301496 0.428829 -0.008170
v -0.259844 0.464126 -0.008170
v -0.257577 0.411534 -0.009997
v -0.221810 0.411534 -0.009997
v -0.221810 0.418157 -0.009997
v -0.257577 0.418157 -0.009997
v 0.000000 0.411534 -0.009997
v 0.000000 0.418157 -0.009997
v 0.301371 0.232063 0.009997
v 0.292240 0.232063 0.009997
v 0.292240 0.007942 0.009997
v 0.292240 0.007942 0.009997
v 0.300764 0.000668 0.009997
v 0.300764 0.000668 0.009997
v 0.274800 0.026654 0.004799
v 0.274800 0.026654 0.004799
v 0.282583 0.017857 0.004101
v 0.282583 0.017857 0.004101
v 0.282583 0.017857 0.004101
v 0.282583 0.017857 0.004101
v 0.287412 0.012754 0.008947
v 0.287412 0.012754 0.008947
v 0.283811 0.016603 0.005333
v 0.283811 0.016603 0.005333
v 0.265629 0.035938 0.000712
v 0.265629 0.035938 0.000712
v 0.265397 0.036323 -0.003663
v 0.265397 0.036323 -0.003663
v 0.265397 0.036323 -0.003663
v 0.265397 0.036323 -0.003663
v 0.261330 0.040095 -0.003663
v 0.261330 0.040095 -0.003663
v 0.274800 0.232063 0.004799
v 0.282583 0.232063 0.004101
v 0.282583 0.232063 0.004101
v 0.287412 0.232063 0.008947
v 0.283811 0.232063 0.005333
v 0.265629 0.232063 0.000712
v 0.265397 0.232063 -0.003663
v 0.265397 0.232063 -0.003663
v 0.261878 0.232063 -0.003663
v 0.261330 0.040095 -0.006671
v 0.261330 0.040095 -0.006671
v 0.261878 0.232063 -0.006671
v 0.265455 0.036226 -0.002566
v 0.265455 0.036226 -0.002566
v 0.265455 0.232063 -0.002566
v 0.261330 0.040095 -0.004469
v 0.261330 0.040095 -0.004469
v 0.261878 0.232063 -0.004469
v 0.266249 0.035310 0.000988
v 0.266249 0.035310 0.000988
v 0.266249 0.232063 0.000988
v 0.301371 0.232063 -0.009997
v 0.301371 0.232063 -0.009997
v 0.300764 0.000668 -0.009997
v 0.300764 0.000668 -0.009997
v 0.300764 0.000668 -0.009997
v 0.260331 0.036226 -0.002566
v 0.260273 0.036323 -0.003663
v 0.260273 0.036323 -0.003663
v 0.259840 0.039636 -0.004469
v 0.259840 0.039636 -0.006671
v 0.277459 0.017857 0.004101
v 0.277459 0.017857 0.004101
v 0.269676 0.026654 0.004799
v 0.295610 0.000000 0.009997
v 0.287117 0.007942 0.009997
v 0.259840 0.039636 -0.003663
v 0.261125 0.035310 0.000988
v 0.282288 0.012754 0.008947
v 0.278687 0.016603 0.005333
v 0.260505 0.035938 0.000712
v 0.295610 0.000000 -0.009997
v 0.295610 0.000000 -0.009997
v 0.301515 0.004888 0.009997
v 0.292240 0.012830 0.009997
v 0.265397 0.041211 -0.003663
v 0.265397 0.041211 -0.003663
v 0.265629 0.040826 0.000712
v 0.283811 0.021491 0.005333
v 0.287412 0.017642 0.008947
v 0.282583 0.022745 0.004101
v 0.282583 0.022745 0.004101
v 0.261878 0.041573 -0.003663
v 0.274800 0.031542 0.004799
v 0.261878 0.041573 -0.006671
v 0.265455 0.041114 -0.002566
v 0.261878 0.041573 -0.004469
v 0.266249 0.040198 0.000988
v 0.301515 0.004888 -0.009997
v 0.301515 0.004888 -0.009997
v 0.300764 0.000668 0.008032
v 0.300764 0.000668 0.008032
v 0.301371 0.232063 0.008032
v 0.295610 0.000000 0.008032
v 0.301515 0.004888 0.008032
v 0.299951 0.232063 0.009997
v 0.299322 0.001902 0.009997
v 0.299322 0.001902 0.009997
v 0.294172 0.001235 0.009997
v 0.300073 0.006123 0.009997
v 0.292240 0.042177 0.009997
v 0.265397 0.066758 -0.003663
v 0.265397 0.066758 -0.003663
v 0.283811 0.049678 0.005333
v 0.282583 0.050764 0.004101
v 0.282583 0.050764 0.004101
v 0.261878 0.069583 -0.003663
v 0.261878 0.069583 -0.006671
v 0.265455 0.066674 -0.002566
v 0.261878 0.069583 -0.004469
v 0.266249 0.065881 0.000988
v 0.301496 0.035297 0.009997
v 0.265629 0.066425 0.000712
v 0.287412 0.046344 0.008947
v 0.274800 0.058383 0.004799
v 0.301496 0.035297 -0.009997
v 0.301496 0.035297 -0.009997
v 0.301496 0.035297 0.008032
v 0.300057 0.036367 0.009997
v 0.228833 0.036226 -0.002566
v 0.225698 0.039636 -0.004469
v 0.243889 0.017857 0.004101
v 0.243889 0.017857 0.004101
v 0.259844 0.000000 0.009997
v 0.248134 0.012754 0.008947
v 0.228986 0.035938 0.000712
v 0.259844 0.000000 -0.009997
v 0.259844 0.000000 -0.009997
v 0.228782 0.036323 -0.003663
v 0.228782 0.036323 -0.003663
v 0.225698 0.039636 -0.006671
v 0.237048 0.026654 0.004799
v 0.252378 0.007942 0.009997
v 0.225698 0.039636 -0.003663
v 0.229531 0.035310 0.000988
v 0.244968 0.016603 0.005333
v 0.259844 0.000000 0.008032
v 0.258580 0.001235 0.009997
v 0.263337 0.232063 -0.009997
v 0.263481 0.039469 -0.009997
v 0.257577 0.039469 -0.009997
v 0.263481 0.044357 -0.009997
v 0.263477 0.051116 -0.009997
v 0.221810 0.039469 -0.009997
v 0.257326 0.002614 -0.009997
v 0.298977 0.037911 -0.009997
v 0.298997 0.007502 -0.009997
v 0.293092 0.002614 -0.009997
v 0.298852 0.232063 -0.009997
v 0.298246 0.003281 -0.009997
v 0.300764 0.000668 -0.008170
v 0.300764 0.000668 -0.008170
v 0.301371 0.232063 -0.008170
v 0.295610 0.000000 -0.008170
v 0.301515 0.004888 -0.008170
v 0.301496 0.035297 -0.008170
v 0.259844 0.000000 -0.008170
v 0.257577 0.232063 -0.009997
v 0.221810 0.232063 -0.009997
v 0.257577 0.052593 -0.009997
v 0.221810 0.052593 -0.009997
v 0.221810 0.045969 -0.009997
v 0.257577 0.045969 -0.009997
v -0.301371 0.232063 0.009997
v -0.292240 0.232063 0.009997
v -0.292240 0.007942 0.009997
v -0.292240 0.007942 0.009997
v -0.300764 0.000668 0.009997
v -0.300764 0.000668 0.009997
v -0.274800 0.026654 0.004799
v -0.274800 0.026654 0.004799
v -0.282583 0.017857 0.004101
v -0.282583 0.017857 0.004101
v -0.282583 0.017857 0.004101
v -0.282583 0.017857 0.004101
v -0.287412 0.012754 0.008947
v -0.287412 0.012754 0.008947
v -0.283811 0.016603 0.005333
v -0.283811 0.016603 0.005333
v -0.265629 0.035938 0.000712
v -0.265629 0.035938 0.000712
v -0.265397 0.036323 -0.003663
v -0.265397 0.036323 -0.003663
v -0.265397 0.036323 -0.003663
v -0.265397 0.036323 -0.003663
v -0.261330 0.040095 -0.003663
v -0.261330 0.040095 -0.003663
v -0.274800 0.232063 0.004799
v -0.282583 0.232063 0.004101
v -0.282583 0.232063 0.004101
v -0.287412 0.232063 0.008947
v -0.283811 0.232063 0.005333
v -0.265629 0.232063 0.000712
v -0.265397 0.232063 -0.003663
v -0.265397 0.232063 -0.003663
v -0.261878 0.232063 -0.003663
v -0.261330 0.040095 -0.006671
v -0.261330 0.040095 -0.006671
v -0.261878 0.232063 -0.006671
v -0.265455 0.036226 -0.002566
v -0.265455 0.036226 -0.002566
v -0.265455 0.232063 -0.002566
v -0.261330 0.040095 -0.004469
v -0.261330 0.040095 -0.004469
v -0.261878 0.232063 -0.004469
v -0.266249 0.035310 0.000988
v -0.266249 0.035310 0.000988
v -0.266249 0.232063 0.000988
v -0.000000 0.007942 0.009997
v -0.000000 0.000000 0.009997
v -0.000000 0.026654 0.004799
v -0.000000 0.017857 0.004101
v -0.000000 0.017857 0.004101
v -0.000000 0.012754 0.008947
v -0.000000 0.016603 0.005333
v -0.000000 0.035938 0.000712
v -0.000000 0.036323 -0.003663
v -0.000000 0.036323 -0.003663
v -0.000000 0.039636 -0.003663
v -0.000000 0.039636 -0.006671
v -0.000000 0.036226 -0.002566
v -0.000000 0.039636 -0.004469
v -0.000000 0.035310 0.000988
v -0.301371 0.232063 -0.009997
v -0.301371 0.232063 -0.009997
v -0.300764 0.000668 -0.009997
v -0.300764 0.000668 -0.009997
v -0.300764 0.000668 -0.009997
v -0.000000 0.000000 -0.009997
v -0.000000 0.000000 -0.009997
v -0.260331 0.036226 -0.002566
v -0.260273 0.036323 -0.003663
v -0.260273 0.036323 -0.003663
v -0.259840 0.039636 -0.004469
v -0.259840 0.039636 -0.006671
v -0.277459 0.017857 0.004101
v -0.277459 0.017857 0.004101
v -0.269676 0.026654 0.004799
v -0.295610 0.000000 0.009997
v -0.287117 0.007942 0.009997
v -0.259840 0.039636 -0.003663
v -0.261125 0.035310 0.000988
v -0.282288 0.012754 0.008947
v -0.278687 0.016603 0.005333
v -0.260505 0.035938 0.000712
v -0.295610 0.000000 -0.009997
v -0.295610 0.000000 -0.009997
v -0.301515 0.004888 0.009997
v -0.292240 0.012830 0.009997
v -0.265397 0.041211 -0.003663
v -0.265397 0.041211 -0.003663
v -0.265629 0.040826 0.000712
v -0.283811 0.021491 0.005333
v -0.287412 0.017642 0.008947
v -0.282583 0.022745 0.004101
v -0.282583 0.022745 0.004101
v -0.261878 0.041573 -0.003663
v -0.274800 0.031542 0.004799
v -0.261878 0.041573 -0.006671
v -0.265455 0.041114 -0.002566
v -0.261878 0.041573 -0.004469
v -0.266249 0.040198 0.000988
v -0.301515 0.004888 -0.009997
v -0.301515 0.004888 -0.009997
v -0.300764 0.000668 0.008032
v -0.300764 0.000668 0.008032
v -0.000000 0.000000 0.008032
v -0.301371 0.232063 0.008032
v -0.295610 0.000000 0.008032
v -0.301515 0.004888 0.008032
v -0.299951 0.232063 0.009997
v -0.299322 0.001902 0.009997
v -0.299322 0.001902 0.009997
v -0.000000 0.001235 0.009997
v -0.294172 0.001235 0.009997
v -0.300073 0.006123 0.009997
v -0.292240 0.042177 0.009997
v -0.265397 0.066758 -0.003663
v -0.265397 0.066758 -0.003663
v -0.283811 0.049678 0.005333
v -0.282583 0.050764 0.004101
v -0.282583 0.050764 0.004101
v -0.261878 0.069583 -0.003663
v -0.261878 0.069583 -0.006671
v -0.265455 0.066674 -0.002566
v -0.261878 0.069583 -0.004469
v -0.266249 0.065881 0.000988
v -0.301496 0.035297 0.009997
v -0.265629 0.066425 0.000712
v -0.287412 0.046344 0.008947
v -0.274800 0.058383 0.004799
v -0.301496 0.035297 -0.009997
v -0.301496 0.035297 -0.009997
v -0.301496 0.035297 0.008032
v -0.300057 0.036367 0.009997
v -0.228833 0.036226 -0.002566
v -0.225698 0.039636 -0.004469
v -0.243889 0.017857 0.004101
v -0.243889 0.017857 0.004101
v -0.259844 0.000000 0.009997
v -0.248134 0.012754 0.008947
v -0.228986 0.035938 0.000712
v -0.259844 0.000000 -0.009997
v -0.259844 0.000000 -0.009997
v -0.228782 0.036323 -0.003663
v -0.228782 0.036323 -0.003663
v -0.225698 0.039636 -0.006671
v -0.237048 0.026654 0.004799
v -0.252378 0.007942 0.009997
v -0.225698 0.039636 -0.003663
v -0.229531 0.035310 0.000988
v -0.244968 0.016603 0.005333
v -0.259844 0.000000 0.008032
v -0.258580 0.001235 0.009997
v -0.263337 0.232063 -0.009997
v -0.263481 0.039469 -0.009997
v -0.000000 0.039469 -0.009997
v -0.257577 0.039469 -0.009997
v -0.263481 0.044357 -0.009997
v -0.263477 0.051116 -0.009997
v -0.221810 0.039469 -0.009997
v -0.257326 0.002614 -0.009997
v -0.000000 0.002614 -0.009997
v -0.298977 0.037911 -0.009997
v -0.298997 0.007502 -0.009997
v -0.293092 0.002614 -0.009997
v -0.298852 0.232063 -0.009997
v -0.298246 0.003281 -0.009997
v -0.300764 0.000668 -0.008170
v -0.300764 0.000668 -0.008170
v -0.301371 0.232063 -0.008170
v -0.295610 0.000000 -0.008170
v -0.301515 0.004888 -0.008170
v -0.000000 0.000000 -0.008170
v -0.301496 0.035297 -0.008170
v -0.259844 0.000000 -0.008170
v -0.257577 0.232063 -0.009997
v -0.221810 0.232063 -0.009997
v -0.257577 0.052593 -0.009997
v -0.221810 0.052593 -0.009997
v -0.221810 0.045969 -0.009997
v -0.257577 0.045969 -0.009997
v 0.000000 0.232063 -0.009997
v -0.000000 0.052593 -0.009997
v -0.000000 0.045969 -0.009997
vn -0.0817 -0.0000 0.9967
vn -0.0000 -0.0000 1.0000
vn -0.2936 -0.0000 0.9559
vn -0.9986 -0.0000 0.0530
vn -0.7084 -0.0000 0.7058
vn -0.4816 -0.0000 0.8764
vn -0.4814 -0.0000 0.8765
vn -0.0622 -0.0000 0.9981
vn -0.2230 -0.0000 0.9748
vn -0.2956 -0.0000 0.9553
vn -0.2935 -0.0000 0.9560
vn -0.9759 -0.0000 0.2184
vn -0.4070 -0.0000 0.9134
vn -0.1816 -0.0000 0.9834
vn -0.0819 -0.0000 0.9966
vn -0.2485 -0.2605 0.9329
vn -0.4820 -0.0000 0.8762
vn -0.6888 -0.7250 -0.0000
vn -0.9998 -0.0186 0.0001
vn -0.9998 -0.0187 -0.0000
vn -0.9758 -0.0000 0.2184
vn -0.0626 -0.0657 0.9959
vn -0.2170 -0.0041 0.9762
vn -0.1817 -0.0000 0.9834
vn -0.0000 -0.3065 0.9519
vn -0.0000 -0.9962 0.0875
vn -0.0000 -0.3082 0.9513
vn -0.0000 -1.0000 -0.0000
vn -0.0000 -0.1717 0.9851
vn -0.0001 -0.0549 0.9985
vn -0.0000 -0.1718 0.9851
vn -0.0000 0.8472 0.5313
vn -0.0001 -0.2361 0.9717
vn -0.0000 -0.3081 0.9514
vn -0.0000 -0.2348 0.9720
vn -0.0000 -0.4029 0.9152
vn -0.0000 -0.6886 0.7251
vn -0.0000 -0.4723 0.8814
vn -0.0000 -0.0896 0.9960
vn -0.0000 -0.9683 0.2498
vn -0.0000 -0.0549 0.9985
vn -0.0001 -0.0548 0.9985
vn 0.6377 0.7703 -0.0000
vn 0.0093 0.5668 -0.8238
vn 0.0163 0.9999 -0.0000
vn 1.0000 -0.0000 -0.0000
vn 0.5894 -0.0003 -0.8079
vn 1.0000 -0.0006 -0.0000
vn -0.0000 0.5745 -0.8185
vn -0.0000 1.0000 -0.0000
vn -0.0273 -0.0286 0.9992
vn -0.0000 -0.0546 0.9985
vn -0.6534 -0.6849 0.3224
vn -0.0000 -0.9683 0.2497
vn -0.6869 -0.7199 0.0997
vn -0.2485 -0.2606 0.9329
vn -0.0000 -0.0897 0.9960
vn -0.0000 -0.4726 0.8813
vn -0.6887 -0.7250 -0.0000
vn -0.0029 -0.2309 0.9730
vn -0.0129 -0.9999 -0.0000
vn -0.3919 -0.4109 0.8231
vn -0.2063 -0.2163 0.9543
vn -0.0000 -0.1723 0.9850
vn -0.0000 -0.3070 0.9517
vn 0.0137 0.8425 0.5385
vn -0.0891 -0.0934 0.9916
vn -0.6888 -0.7249 -0.0000
vn -0.2001 -0.2097 0.9571
vn -0.0000 -0.3071 0.9517
vn 0.9998 0.0211 -0.0000
vn 0.2873 0.3471 -0.8927
vn -0.2064 -0.2162 0.9543
vn -0.1825 -0.0000 0.9832
vn -1.0000 -0.0000 -0.0000
vn -0.6868 -0.7200 0.0997
vn -0.0618 -0.0000 0.9981
vn -0.0272 -0.0286 0.9992
vn -0.2938 -0.0000 0.9559
vn -0.2001 -0.2096 0.9571
vn -0.0272 -0.0285 0.9992
vn -0.3920 -0.4109 0.8231
vn -0.2002 -0.2097 0.9571
vn -0.0428 -0.0448 0.9981
vn 0.8019 0.0169 0.5973
vn 0.4619 0.5579 0.6894
vn -0.0000 0.8472 0.5312
vn 0.8094 -0.0000 0.5872
vn 0.8092 -0.0005 0.5876
vn 0.4619 0.5580 0.6894
vn 0.9998 0.0212 -0.0000
vn -0.2214 -0.0000 0.9752
vn 0.5786 0.0122 -0.8155
vn -0.2939 -0.0000 0.9558
vn -0.0000 0.5746 -0.8184
vn 0.0001 -0.3064 0.9519
vn -0.0000 -0.0000 -1.0000
vn 0.5787 0.0122 -0.8155
vn 0.2872 0.3471 -0.8928
vn 0.5897 -0.0000 -0.8076
vn 0.5894 -0.0003 -0.8078
vn -0.0000 0.5747 -0.8184
vn 0.0817 -0.0000 0.9967
vn 0.9986 -0.0000 0.0530
vn 0.2936 -0.0000 0.9559
vn 0.4814 -0.0000 0.8765
vn 0.7084 -0.0000 0.7058
vn 0.4816 -0.0000 0.8764
vn 0.0622 -0.0000 0.9981
vn 0.2956 -0.0000 0.9553
vn 0.2230 -0.0000 0.9748
vn 0.2935 -0.0000 0.9559
vn 0.4070 -0.0000 0.9134
vn 0.9759 -0.0000 0.2184
vn 0.4071 -0.0000 0.9134
vn 0.1816 -0.0000 0.9834
vn 0.0819 -0.0000 0.9966
vn 0.2485 -0.2605 0.9329
vn 0.0428 -0.0448 0.9981
vn 0.9998 -0.0186 -0.0000
vn 0.6889 -0.7249 -0.0000
vn 0.9998 -0.0187 -0.0000
vn 0.9758 -0.0000 0.2184
vn 0.0625 -0.0658 0.9959
vn 0.2170 -0.0040 0.9762
vn 0.1817 -0.0000 0.9834
vn -0.0000 -0.2361 0.9717
vn -0.0000 -0.3064 0.9519
vn -0.0093 0.5668 -0.8238
vn -0.6377 0.7703 -0.0000
vn -0.0163 0.9999 -0.0000
vn -0.5894 -0.0003 -0.8079
vn -1.0000 -0.0006 -0.0000
vn 0.0272 -0.0285 0.9992
vn 0.3919 -0.4109 0.8231
vn 0.6534 -0.6849 0.3224
vn 0.2063 -0.2163 0.9543
vn 0.6869 -0.7199 0.0997
vn 0.6888 -0.7249 -0.0000
vn 0.0030 -0.2309 0.9730
vn -0.0000 -0.4725 0.8813
vn 0.0891 -0.0934 0.9916
vn 0.2000 -0.2097 0.9571
vn -0.0138 0.8425 0.5385
vn -0.4619 0.5580 0.6894
vn 0.0273 -0.0285 0.9992
vn 0.6888 -0.7250 -0.0000
vn 0.0129 -0.9999 -0.0000
vn 0.2000 -0.2098 0.9571
vn -0.2873 0.3471 -0.8927
vn -0.9998 0.0211 -0.0000
vn 0.1825 -0.0000 0.9832
vn 0.6868 -0.7200 0.0997
vn 0.6534 -0.6849 0.3225
vn 0.4818 -0.0000 0.8763
vn 0.0618 -0.0000 0.9981
vn 0.0272 -0.0286 0.9992
vn 0.2938 -0.0000 0.9559
vn 0.3920 -0.4109 0.8231
vn 0.2001 -0.2097 0.9571
vn -0.8019 0.0169 0.5973
vn -0.4619 0.5579 0.6895
vn -0.8094 -0.0000 0.5872
vn -0.8092 -0.0005 0.5876
vn -0.9998 0.0212 -0.0000
vn 0.2214 -0.0004 0.9752
vn -0.5786 0.0123 -0.8155
vn 0.0617 -0.0000 0.9981
vn 0.2939 -0.0000 0.9558
vn -0.2873 0.3470 -0.8928
vn -0.5787 0.0123 -0.8155
vn -0.5897 -0.0000 -0.8076
vn -0.5894 -0.0003 -0.8078
vn -0.4071 -0.0000 0.9134
vn -0.2485 0.2605 0.9329
vn -0.0428 0.0448 0.9981
vn -0.9998 0.0187 -0.0000
vn -0.6889 0.7249 -0.0000
vn -0.0625 0.0657 0.9959
vn -0.2170 0.0040 0.9762
vn -0.0000 0.3065 0.9519
vn -0.0000 0.9962 0.0876
vn -0.0000 0.1718 0.9851
vn -0.0000 0.0549 0.9985
vn -0.0000 0.0548 0.9985
vn -0.0000 -0.8472 0.5313
vn -0.0000 -0.8472 0.5312
vn -0.0000 0.2361 0.9717
vn -0.0000 0.3081 0.9514
vn -0.0000 0.3064 0.9519
vn -0.0000 0.4029 0.9152
vn -0.0000 0.6886 0.7251
vn -0.0000 0.4723 0.8814
vn -0.0000 0.0896 0.9960
vn -0.0000 0.9683 0.2498
vn 0.0093 -0.5667 -0.8238
vn 0.6377 -0.7703 -0.0000
vn 0.0163 -0.9999 -0.0000
vn 0.5894 0.0003 -0.8079
vn 1.0000 0.0006 -0.0000
vn -0.0000 -0.5745 -0.8185
vn -0.0272 0.0285 0.9992
vn -0.3919 0.4109 0.8231
vn -0.6534 0.6849 0.3224
vn -0.2063 0.2163 0.9543
vn -0.6869 0.7199 0.0997
vn -0.0000 0.9683 0.2497
vn -0.0129 0.9999 -0.0000
vn -0.6888 0.7249 -0.0000
vn -0.0000 0.4726 0.8813
vn -0.0000 0.1723 0.9850
vn -0.0891 0.0934 0.9916
vn -0.0000 0.3070 0.9517
vn -0.2000 0.2097 0.9571
vn 0.0138 -0.8425 0.5385
vn 0.4619 -0.5580 0.6894
vn -0.0000 0.0546 0.9985
vn -0.0273 0.0285 0.9992
vn -0.0129 0.9999 0.0001
vn -0.2000 0.2098 0.9571
vn 0.2873 -0.3471 -0.8927
vn 0.9998 -0.0212 -0.0000
vn 0.6376 -0.7703 -0.0000
vn -0.6868 0.7200 0.0997
vn -0.6534 0.6849 0.3225
vn -0.4818 -0.0000 0.8763
vn -0.0272 0.0286 0.9992
vn -0.3920 0.4109 0.8231
vn -0.2001 0.2097 0.9571
vn 0.8019 -0.0169 0.5973
vn 0.4619 -0.5579 0.6895
vn 0.8092 0.0005 0.5876
vn 0.9998 -0.0211 -0.0000
vn 0.5786 -0.0124 -0.8155
vn -0.0617 -0.0000 0.9981
vn -0.0000 -0.5746 -0.8184
vn -0.0030 0.2309 0.9730
vn -0.0000 0.3071 0.9517
vn 0.0092 -0.5668 -0.8238
vn 0.2873 -0.3470 -0.8928
vn 0.5787 -0.0123 -0.8155
vn 0.5894 0.0003 -0.8078
vn -0.0000 -0.5747 -0.8184
vn 0.2935 -0.0000 0.9560
vn 0.2485 0.2605 0.9329
vn 0.4819 -0.0000 0.8762
vn 0.6889 0.7249 -0.0000
vn 0.9998 0.0187 -0.0001
vn 0.9998 0.0187 -0.0000
vn 0.0624 0.0658 0.9959
vn 0.2170 0.0040 0.9762
vn -0.0000 0.3081 0.9513
vn 0.0001 0.2361 0.9717
vn -0.0000 0.2348 0.9720
vn -0.0000 0.4724 0.8814
vn -0.6377 -0.7703 -0.0000
vn -0.0093 -0.5668 -0.8238
vn -0.0163 -0.9999 -0.0000
vn -0.5894 0.0003 -0.8079
vn -1.0000 0.0006 -0.0000
vn 0.0273 0.0285 0.9992
vn 0.6534 0.6849 0.3224
vn 0.6869 0.7199 0.0997
vn 0.2485 0.2606 0.9329
vn -0.0000 0.4725 0.8813
vn 0.0129 0.9999 -0.0000
vn 0.6888 0.7249 -0.0000
vn 0.3920 0.4109 0.8231
vn 0.2063 0.2163 0.9543
vn 0.0029 0.2309 0.9730
vn -0.0137 -0.8425 0.5385
vn 0.0891 0.0934 0.9916
vn 0.6888 0.7250 -0.0000
vn 0.2001 0.2097 0.9571
vn -0.9998 -0.0212 -0.0000
vn -0.2873 -0.3471 -0.8927
vn -0.6376 -0.7703 -0.0000
vn 0.6868 0.7200 0.0997
vn 0.2001 0.2096 0.9571
vn 0.2002 0.2096 0.9571
vn 0.0428 0.0448 0.9981
vn -0.8019 -0.0169 0.5973
vn -0.4619 -0.5579 0.6894
vn -0.8092 0.0005 0.5876
vn -0.4619 -0.5580 0.6894
vn -0.9998 -0.0211 -0.0000
vn -0.5786 -0.0122 -0.8155
vn -0.0001 0.3064 0.9519
vn -0.5787 -0.0122 -0.8155
vn -0.2872 -0.3471 -0.8928
vn -0.5894 0.0003 -0.8078
vn -0.6889 -0.7249 -0.0000
vt 0.073236 0.840393
vt 0.381763 0.853062
vt 0.063800 0.853097
vt 0.090448 0.942334
vt 0.359028 0.944118
vt 0.090313 0.944118
vt 0.085425 0.824071
vt 0.381763 0.832504
vt 0.080008 0.832363
vt 0.087191 0.821245
vt 0.381763 0.824213
vt 0.579362 0.657813
vt 0.585096 0.393578
vt 0.585069 0.662397
vt 0.089907 0.949452
vt 0.359028 0.950556
vt 0.089023 0.950556
vt 0.076842 0.965767
vt 0.359028 0.978463
vt 0.064462 0.978463
vt 0.025529 0.840454
vt 0.025391 0.832397
vt 0.033347 0.832398
vt 0.577768 0.705519
vt 0.574528 0.702993
vt 0.578045 0.703092
vt 0.359028 0.949453
vt 0.578842 0.705670
vt 0.579406 0.703215
vt 0.359028 0.965767
vt 0.773754 0.161089
vt 0.775541 0.532798
vt 0.773753 0.532798
vt 0.072680 0.026998
vt 0.439739 0.030576
vt 0.072679 0.030570
vt 0.797371 0.147659
vt 0.811709 0.532798
vt 0.797371 0.532798
vt 0.961997 0.087247
vt 0.964005 0.507329
vt 0.961990 0.507329
vt 0.072680 0.025693
vt 0.439739 0.020293
vt 0.439739 0.025682
vt 0.782004 0.159872
vt 0.782004 0.532798
vt 0.934511 0.109355
vt 0.943092 0.507329
vt 0.934513 0.507329
vt 0.439739 0.026993
vt 0.943091 0.104214
vt 0.951093 0.507329
vt 0.775543 0.161006
vt 0.780888 0.532798
vt 0.780890 0.160758
vt 0.931654 0.111107
vt 0.931654 0.507329
vt 0.993456 0.018645
vt 0.996454 0.027112
vt 0.993483 0.027117
vt 0.381763 0.884888
vt 0.062062 0.887916
vt 0.062063 0.884951
vt 0.996487 0.085191
vt 0.993521 0.085192
vt 0.931683 0.048227
vt 0.934541 0.054560
vt 0.931682 0.056554
vt 0.780890 0.101223
vt 0.782005 0.108540
vt 0.780890 0.109548
vt 0.775543 0.101506
vt 0.775543 0.109831
vt 0.943122 0.040373
vt 0.951149 0.040865
vt 0.943126 0.048709
vt 0.014926 0.027247
vt 0.017253 0.025658
vt 0.017357 0.027014
vt 0.934541 0.046233
vt 0.782005 0.100216
vt 0.797371 0.094647
vt 0.014794 0.026132
vt 0.016635 0.020280
vt 0.961363 0.021045
vt 0.964076 0.027225
vt 0.962109 0.029485
vt 0.797371 0.086322
vt 0.811709 0.082002
vt 0.015043 0.030632
vt 0.017439 0.030549
vt 0.773754 0.101600
vt 0.773754 0.109925
vt 0.012689 0.884902
vt 0.005686 0.887859
vt 0.005692 0.884878
vt 0.039354 0.950556
vt 0.033231 0.965767
vt 0.025289 0.965767
vt 0.578059 0.657814
vt 0.040842 0.944119
vt 0.048315 0.949453
vt 0.040374 0.949453
vt 0.574493 0.657815
vt 0.018938 0.978463
vt 0.010996 0.978463
vt 0.047295 0.950556
vt 0.585101 0.703707
vt 0.585375 0.711305
vt 0.033692 0.821271
vt 0.039601 0.824097
vt 0.031653 0.824098
vt 0.040998 0.942334
vt 0.048784 0.944119
vt 0.017526 0.840473
vt 0.014728 0.853243
vt 0.007781 0.852330
vt 0.012836 0.855528
vt 0.005785 0.858422
vt 0.005930 0.855053
vt 0.967208 0.085199
vt 0.964012 0.085196
vt 0.381763 0.855368
vt 0.062070 0.858639
vt 0.062065 0.855444
vt 0.963715 0.018821
vt 0.967189 0.027176
vt 0.951164 0.032478
vt 0.951094 0.097320
vt 0.012760 0.858615
vt 0.381763 0.840533
vt 0.574433 0.393578
vt 0.578031 0.393578
vt 0.579358 0.393578
vt 0.012683 0.887875
vt 0.041639 0.821268
vt 0.048940 0.942334
vt 0.967198 0.507330
vt 0.996489 0.507330
vt 0.993521 0.507330
vt 0.067670 0.020312
vt 0.811709 0.136544
vt 0.013670 0.386423
vt 0.056447 0.128975
vt 0.056447 0.386423
vt 0.054639 0.039409
vt 0.062120 0.080608
vt 0.019343 0.039387
vt 0.013670 0.087753
vt 0.056447 0.087462
vt 0.279985 0.039554
vt 0.069965 0.080613
vt 0.056447 0.080608
vt 0.014445 0.040258
vt 0.013670 0.046240
vt 0.010636 0.043317
vt 0.016310 0.036464
vt 0.011411 0.037335
vt 0.279985 0.036630
vt 0.051605 0.036486
vt 0.010635 0.084829
vt 0.010636 0.386423
vt 0.381763 0.858564
vt 0.967036 0.018729
vt 0.071679 0.087462
vt 0.279985 0.128974
vt 0.071679 0.128975
vt 0.063991 0.087462
vt 0.063991 0.128975
vt 0.279985 0.080775
vt 0.279985 0.087462
vt 0.063992 0.386423
vt 0.071679 0.386423
vt 0.381759 0.774745
vt 0.690284 0.762077
vt 0.699720 0.774780
vt 0.362130 0.895014
vt 0.630708 0.893230
vt 0.630843 0.895015
vt 0.381759 0.754187
vt 0.678095 0.745754
vt 0.683512 0.754047
vt 0.381759 0.745897
vt 0.676330 0.742929
vt 0.606378 0.393599
vt 0.600643 0.129379
vt 0.606351 0.124795
vt 0.362130 0.901452
vt 0.631249 0.900349
vt 0.632132 0.901452
vt 0.362130 0.929360
vt 0.644314 0.916663
vt 0.656693 0.929359
vt 0.737990 0.762136
vt 0.738128 0.754079
vt 0.745993 0.762155
vt 0.595810 0.084201
vt 0.599050 0.081676
vt 0.599327 0.084103
vt 0.362130 0.900347
vt 0.600123 0.081525
vt 0.600688 0.083979
vt 0.362130 0.916663
vt 0.773750 0.904498
vt 0.775539 0.904581
vt 0.806904 0.027001
vt 0.806904 0.030572
vt 0.797371 0.917930
vt 0.811709 0.929045
vt 0.961989 0.927430
vt 0.964009 0.929486
vt 0.806903 0.025692
vt 0.811914 0.020311
vt 0.782004 0.905717
vt 0.934501 0.905320
vt 0.943082 0.910462
vt 0.951086 0.917357
vt 0.780887 0.904829
vt 0.931645 0.903569
vt 0.996454 0.987575
vt 0.993456 0.996042
vt 0.993482 0.987569
vt 0.701457 0.809599
vt 0.381759 0.806571
vt 0.701456 0.806633
vt 0.996489 0.929490
vt 0.993521 0.929490
vt 0.931674 0.966457
vt 0.934532 0.960123
vt 0.934532 0.968452
vt 0.780889 0.964367
vt 0.782003 0.957050
vt 0.782003 0.965375
vt 0.775542 0.964085
vt 0.780889 0.956042
vt 0.943115 0.974312
vt 0.951143 0.973820
vt 0.951158 0.982208
vt 0.864661 0.027247
vt 0.862334 0.025658
vt 0.864794 0.026132
vt 0.943118 0.965974
vt 0.797371 0.970944
vt 0.797371 0.979269
vt 0.862952 0.020280
vt 0.870973 0.020026
vt 0.961359 0.993642
vt 0.964073 0.987461
vt 0.963712 0.995866
vt 0.811709 0.983590
vt 0.811709 0.991915
vt 0.864544 0.030632
vt 0.862231 0.027014
vt 0.773753 0.963990
vt 0.775541 0.955759
vt 0.757833 0.809541
vt 0.750830 0.806584
vt 0.757827 0.806560
vt 0.687923 0.916663
vt 0.681801 0.901452
vt 0.695865 0.916663
vt 0.599342 0.129378
vt 0.672839 0.900349
vt 0.680313 0.895016
vt 0.680781 0.900349
vt 0.595776 0.129377
vt 0.730172 0.754081
vt 0.702215 0.929359
vt 0.710157 0.929359
vt 0.673859 0.901452
vt 0.606382 0.083488
vt 0.606657 0.075890
vt 0.723918 0.745779
vt 0.729827 0.742954
vt 0.731866 0.745781
vt 0.672371 0.895015
vt 0.680156 0.893231
vt 0.748791 0.774925
vt 0.755738 0.774011
vt 0.757734 0.780104
vt 0.750683 0.777210
vt 0.757589 0.776735
vt 0.967206 0.929483
vt 0.701449 0.780321
vt 0.381759 0.777052
vt 0.701454 0.777125
vt 0.967187 0.987511
vt 0.962105 0.985201
vt 0.750759 0.780296
vt 0.381759 0.762216
vt 0.595713 0.393599
vt 0.599311 0.393599
vt 0.600640 0.393599
vt 0.750837 0.809557
vt 0.721880 0.742951
vt 0.672214 0.893231
vt 0.931673 0.958130
vt 0.862148 0.030549
vt 0.773752 0.955665
vt 0.056447 0.643872
vt 0.013670 0.685093
vt 0.062121 0.692238
vt 0.054639 0.733437
vt 0.019344 0.733460
vt 0.056447 0.685385
vt 0.013670 0.726607
vt 0.069966 0.692233
vt 0.279986 0.733292
vt 0.056447 0.692238
vt 0.014445 0.732588
vt 0.010637 0.729530
vt 0.011412 0.735512
vt 0.016310 0.736383
vt 0.279986 0.736216
vt 0.051606 0.736361
vt 0.010636 0.688017
vt 0.381759 0.780246
vt 0.967033 0.995959
vt 0.279986 0.643872
vt 0.071680 0.685385
vt 0.071680 0.643872
vt 0.063992 0.685385
vt 0.063992 0.643872
vt 0.279986 0.692070
vt 0.279986 0.685385
vt 0.690281 0.840392
vt 0.699717 0.853095
vt 0.627605 0.942333
vt 0.627741 0.944117
vt 0.678092 0.824070
vt 0.683509 0.832362
vt 0.676327 0.821245
vt 0.579363 0.129377
vt 0.585069 0.124793
vt 0.628146 0.949451
vt 0.629031 0.950556
vt 0.641213 0.965767
vt 0.653592 0.978463
vt 0.737987 0.840451
vt 0.738125 0.832395
vt 0.745990 0.840470
vt 0.574529 0.084201
vt 0.577769 0.081675
vt 0.578045 0.084102
vt 0.578842 0.081525
vt 0.579406 0.083979
vt 0.819050 0.904517
vt 0.820836 0.532800
vt 0.820839 0.904600
vt 0.436224 0.013209
vt 0.803012 0.009597
vt 0.803013 0.013166
vt 0.842666 0.917947
vt 0.857005 0.532800
vt 0.857004 0.929063
vt 0.893188 0.927412
vt 0.895206 0.507335
vt 0.895211 0.929471
vt 0.803011 0.008292
vt 0.436224 0.002896
vt 0.808018 0.002915
vt 0.827299 0.905734
vt 0.842667 0.532800
vt 0.865700 0.905303
vt 0.874294 0.507335
vt 0.874281 0.910444
vt 0.436224 0.009619
vt 0.882295 0.507335
vt 0.882285 0.917338
vt 0.826183 0.532800
vt 0.826185 0.904849
vt 0.827299 0.532800
vt 0.862840 0.903548
vt 0.865714 0.507335
vt 0.927653 0.987560
vt 0.924655 0.996027
vt 0.924682 0.987554
vt 0.701456 0.887916
vt 0.701455 0.884949
vt 0.927689 0.929476
vt 0.924722 0.929475
vt 0.862873 0.966441
vt 0.865730 0.960107
vt 0.865731 0.968435
vt 0.826185 0.964384
vt 0.827299 0.957067
vt 0.827299 0.965392
vt 0.820838 0.964101
vt 0.826185 0.956059
vt 0.874314 0.974296
vt 0.882343 0.973804
vt 0.882358 0.982192
vt 0.858282 0.009608
vt 0.860841 0.008726
vt 0.860709 0.009840
vt 0.874317 0.965958
vt 0.842666 0.970961
vt 0.842666 0.979286
vt 0.859002 0.002881
vt 0.867012 0.002626
vt 0.892559 0.993626
vt 0.895273 0.987446
vt 0.894912 0.995850
vt 0.857004 0.983606
vt 0.857004 0.991931
vt 0.858199 0.013139
vt 0.860593 0.013222
vt 0.819048 0.964007
vt 0.820838 0.955776
vt 0.757833 0.887855
vt 0.750830 0.884898
vt 0.757827 0.884874
vt 0.684822 0.965767
vt 0.678700 0.950556
vt 0.692764 0.965767
vt 0.578059 0.129376
vt 0.669738 0.949453
vt 0.677212 0.944119
vt 0.677680 0.949453
vt 0.574493 0.129375
vt 0.730169 0.832396
vt 0.699115 0.978463
vt 0.707056 0.978463
vt 0.670758 0.950556
vt 0.585101 0.083487
vt 0.585375 0.075890
vt 0.723915 0.824095
vt 0.729823 0.821269
vt 0.731862 0.824096
vt 0.669270 0.944119
vt 0.677055 0.942335
vt 0.748788 0.853240
vt 0.755734 0.852326
vt 0.757731 0.858417
vt 0.750680 0.855524
vt 0.757585 0.855049
vt 0.898408 0.929468
vt 0.701448 0.858638
vt 0.701453 0.855442
vt 0.898387 0.987495
vt 0.893305 0.985185
vt 0.893191 0.507335
vt 0.750756 0.858611
vt 0.750836 0.887871
vt 0.721877 0.821267
vt 0.669114 0.942334
vt 0.898399 0.507335
vt 0.927689 0.507335
vt 0.924721 0.507335
vt 0.862872 0.958113
vt 0.858385 0.008253
vt 0.819048 0.955682
vt 0.546301 0.386423
vt 0.503524 0.128974
vt 0.546301 0.087753
vt 0.497850 0.080608
vt 0.505332 0.039409
vt 0.540627 0.039387
vt 0.503524 0.087462
vt 0.546300 0.046240
vt 0.490005 0.080613
vt 0.503524 0.080608
vt 0.545526 0.040258
vt 0.549334 0.043317
vt 0.548559 0.037335
vt 0.543661 0.036463
vt 0.508366 0.036486
vt 0.549336 0.084828
vt 0.549335 0.386423
vt 0.898233 0.995942
vt 0.488292 0.087461
vt 0.488292 0.128974
vt 0.495979 0.087461
vt 0.495979 0.128974
vt 0.495980 0.386423
vt 0.488292 0.386423
vt 0.503524 0.386423
vt 0.073236 0.762073
vt 0.063799 0.774776
vt 0.093548 0.893230
vt 0.093412 0.895015
vt 0.085425 0.745751
vt 0.080008 0.754043
vt 0.087191 0.742925
vt 0.600644 0.657805
vt 0.606351 0.662389
vt 0.093007 0.900349
vt 0.092123 0.901452
vt 0.079941 0.916663
vt 0.067562 0.929360
vt 0.025529 0.762132
vt 0.025391 0.754075
vt 0.033347 0.754076
vt 0.599050 0.705506
vt 0.595810 0.702981
vt 0.599327 0.703079
vt 0.600124 0.705657
vt 0.600688 0.703203
vt 0.819050 0.161090
vt 0.819048 0.532800
vt 0.069337 0.009597
vt 0.069336 0.013167
vt 0.842667 0.147660
vt 0.893194 0.087248
vt 0.069338 0.008293
vt 0.436224 0.008294
vt 0.827300 0.159873
vt 0.865709 0.109356
vt 0.874288 0.104215
vt 0.820839 0.161007
vt 0.826186 0.160758
vt 0.862851 0.111108
vt 0.862856 0.507335
vt 0.924654 0.018645
vt 0.927652 0.027112
vt 0.924680 0.027117
vt 0.062061 0.809599
vt 0.062062 0.806632
vt 0.927685 0.085192
vt 0.924719 0.085193
vt 0.862880 0.048228
vt 0.865738 0.054561
vt 0.862880 0.056555
vt 0.826186 0.101224
vt 0.827300 0.108541
vt 0.826186 0.109548
vt 0.820839 0.101506
vt 0.820839 0.109831
vt 0.874319 0.040374
vt 0.882347 0.040865
vt 0.874323 0.048710
vt 0.011511 0.008726
vt 0.014071 0.009608
vt 0.011643 0.009840
vt 0.865738 0.046233
vt 0.827300 0.100216
vt 0.842667 0.094647
vt 0.013350 0.002881
vt 0.013968 0.008253
vt 0.892560 0.021045
vt 0.895273 0.027225
vt 0.893306 0.029485
vt 0.842667 0.086322
vt 0.857005 0.082002
vt 0.014153 0.013139
vt 0.011759 0.013222
vt 0.819050 0.101601
vt 0.819050 0.109926
vt 0.012685 0.806581
vt 0.005680 0.809538
vt 0.005688 0.806556
vt 0.042453 0.901452
vt 0.036331 0.916663
vt 0.028389 0.916663
vt 0.599342 0.657806
vt 0.043941 0.895015
vt 0.051415 0.900349
vt 0.043473 0.900349
vt 0.595775 0.657808
vt 0.022038 0.929360
vt 0.014096 0.929360
vt 0.050395 0.901452
vt 0.606382 0.703694
vt 0.606656 0.711292
vt 0.033692 0.742949
vt 0.039601 0.745775
vt 0.031653 0.745777
vt 0.044098 0.893230
vt 0.051883 0.895015
vt 0.017525 0.762151
vt 0.014727 0.774921
vt 0.007780 0.774007
vt 0.012835 0.777206
vt 0.005784 0.780099
vt 0.005929 0.776730
vt 0.898406 0.085200
vt 0.895209 0.085197
vt 0.062069 0.780320
vt 0.062064 0.777123
vt 0.894912 0.018822
vt 0.898387 0.027176
vt 0.882361 0.032478
vt 0.882292 0.097321
vt 0.012759 0.780293
vt 0.012679 0.809554
vt 0.041639 0.742947
vt 0.052040 0.893230
vt 0.064332 0.002915
vt 0.857005 0.136545
vt 0.503524 0.643871
vt 0.505333 0.733437
vt 0.497851 0.692238
vt 0.540628 0.733460
vt 0.546301 0.685093
vt 0.503524 0.685385
vt 0.490006 0.692233
vt 0.503524 0.692238
vt 0.545527 0.732588
vt 0.546301 0.726606
vt 0.549335 0.729529
vt 0.543661 0.736383
vt 0.548560 0.735511
vt 0.508366 0.736360
vt 0.549336 0.688017
vt 0.898233 0.018729
vt 0.488292 0.685385
vt 0.488292 0.643872
vt 0.495980 0.685385
vt 0.495980 0.643872
vt 0.359028 0.942333
vt 0.381763 0.821389
vt 0.574431 0.705383
vt 0.996434 0.018638
vt 0.381763 0.887856
vt 0.008615 0.020026
vt 0.811709 0.073677
vt 0.279986 0.386423
vt 0.362130 0.893229
vt 0.381759 0.743072
vt 0.595713 0.081812
vt 0.996434 0.996049
vt 0.381759 0.809536
vt 0.574432 0.081811
vt 0.927634 0.996034
vt 0.595713 0.705370
vt 0.927632 0.018638
vt 0.005340 0.002627
vt 0.857005 0.073677
s 1
f 76/1/1 380/2/2 94/3/2
f 77/4/3 329/5/4 84/6/4
f 79/7/5 318/8/6 89/9/7
f 81/10/8 319/11/5 79/7/5
f 82/12/9 322/13/10 78/14/11
f 88/15/12 335/16/13 86/17/13
f 90/18/14 316/19/8 80/20/8
f 52/21/15 11/22/16 57/23/17
f 28/24/18 62/25/19 64/26/20
f 84/6/4 320/27/21 88/15/12
f 22/28/22 64/26/20 60/29/23
f 86/17/13 315/30/24 90/18/14
f 105/31/25 176/32/26 173/33/27
s 0
f 96/34/28 175/35/28 106/36/28
s 1
f 107/37/29 167/38/30 166/39/31
f 113/40/2 165/41/32 225/42/2
f 109/43/33 172/44/34 174/45/35
f 110/46/36 166/39/31 178/47/36
f 111/48/37 169/49/38 170/50/37
f 109/43/33 177/51/28 96/34/28
f 100/52/38 164/53/39 169/49/38
f 95/54/26 171/55/40 176/32/26
f 101/56/40 178/47/36 171/55/40
f 98/57/41 170/50/37 168/58/42
f 125/59/43 50/60/44 126/61/45
f 437/62/46 92/63/47 128/64/48
f 126/61/45 103/65/49 129/66/50
f 10/67/51 47/68/37 40/69/52
f 16/70/53 45/71/36 48/72/54
f 26/73/55 48/72/54 34/74/26
f 12/75/56 43/76/57 46/77/58
f 27/78/59 44/79/60 37/80/61
f 14/81/62 46/77/58 47/68/37
f 30/82/63 41/83/64 45/71/36
f 21/84/22 35/85/65 44/79/60
f 73/86/2 42/87/66 74/88/2
f 6/89/67 39/90/52 41/83/64
f 23/91/68 37/80/61 38/92/61
f 20/93/69 34/74/26 36/94/70
f 127/95/71 31/96/72 124/97/43
f 29/98/73 61/99/74 5/100/67
f 60/29/23 85/101/75 82/12/9
f 25/102/76 55/103/12 15/104/53
f 64/26/20 83/105/75 85/101/75
f 76/1/1 57/23/17 89/9/7
f 5/100/67 58/106/77 7/107/78
f 15/104/53 65/108/13 29/98/73
f 22/28/22 54/109/79 19/110/80
f 8/111/81 56/112/5 13/113/82
f 13/113/82 57/23/17 11/22/16
f 18/114/83 63/115/4 25/102/76
f 1/116/84 75/117/2 72/118/2
f 51/119/85 68/120/43 3/121/86
f 42/87/66 112/122/50 99/123/87
f 291/124/88 93/125/48 87/126/89
f 4/127/90 70/128/45 42/87/66
f 72/118/2 51/119/85 3/121/86
f 2/129/84 74/88/2 43/76/57
f 108/130/39 225/42/2 164/53/39
f 94/3/2 291/124/88 87/126/89
f 75/117/2 87/126/89 51/119/85
f 87/126/89 71/131/91 51/119/85
f 292/132/1 89/9/7 318/8/6
s 0
f 85/101/75 326/133/75 332/134/75
s 1
f 82/12/9 332/134/75 323/135/92
f 128/64/48 66/136/93 127/95/71
f 65/108/13 90/18/14 61/99/74
f 63/115/4 88/15/12 55/103/12
f 61/99/74 80/20/8 58/106/77
f 55/103/12 86/17/13 65/108/13
f 60/29/23 78/14/11 54/109/79
f 59/137/77 79/7/5 56/112/5
f 56/112/5 89/9/7 57/23/17
f 53/138/94 84/6/4 63/115/4
f 52/21/15 94/3/2 75/117/2
f 43/76/57 113/40/2 108/130/39
f 99/123/87 220/139/50 165/41/32
f 129/66/50 183/140/95 282/141/50
f 40/69/52 111/48/37 98/57/41
f 48/72/54 110/46/36 101/56/40
f 34/74/26 101/56/40 95/54/26
f 46/77/58 108/130/39 100/52/38
f 44/79/60 96/34/28 37/80/61
f 47/68/37 100/52/38 111/48/37
f 45/71/36 107/37/29 110/46/36
f 44/79/60 104/142/96 109/43/33
f 74/88/2 99/123/87 113/40/2
f 41/83/64 97/143/41 107/37/29
f 37/80/61 106/36/28 38/92/61
f 36/94/70 95/54/26 105/31/25
s 0
f 273/144/97 118/145/97 267/146/97
f 120/147/97 116/148/97 121/149/97
f 119/150/97 115/151/97 118/145/97
f 433/152/97 117/153/97 120/147/97
f 121/149/97 114/154/97 123/155/97
f 122/156/97 114/154/97 115/151/97
s 1
f 49/157/44 123/155/97 122/156/97
f 67/158/98 123/155/97 32/159/99
f 336/160/100 120/147/97 91/161/101
f 102/162/49 122/156/97 119/150/97
f 91/161/101 121/149/97 67/158/98
f 182/163/102 119/150/97 273/144/97
s 0
f 112/122/50 282/141/50 220/139/50
s 1
f 71/131/91 128/64/48 127/95/71
f 68/120/43 127/95/71 124/97/43
f 70/128/45 129/66/50 112/122/50
f 377/164/46 128/64/48 93/125/48
f 69/165/43 126/61/45 70/128/45
s 0
f 130/166/97 443/167/97 131/168/97
f 133/169/97 131/168/97 132/170/97
f 115/151/97 132/170/97 118/145/97
f 115/151/97 116/148/97 133/169/97
f 133/169/97 117/153/97 130/166/97
f 130/166/97 423/171/97 442/172/97
f 131/168/97 290/173/97 132/170/97
f 443/167/97 289/174/97 131/168/97
f 132/170/97 267/146/97 118/145/97
s 1
f 555/175/2 228/176/103 246/177/2
f 486/178/104 230/179/105 236/180/104
f 475/181/106 231/182/107 241/183/108
f 476/184/107 233/185/109 231/182/107
f 479/186/110 234/187/111 229/188/112
f 492/189/113 240/190/114 238/191/115
f 473/192/109 242/193/116 232/194/109
f 202/195/117 144/196/118 134/197/119
f 212/198/120 160/199/121 214/200/122
f 477/201/123 236/180/104 240/190/114
f 214/200/122 154/202/124 210/203/125
f 472/204/126 238/191/115 242/193/116
f 256/205/25 176/32/26 247/206/26
s 0
f 175/35/28 248/207/28 258/208/28
s 1
f 259/209/31 167/38/30 249/210/41
f 265/211/2 165/41/32 251/212/87
f 261/213/127 172/44/34 257/214/128
f 262/215/36 166/39/31 259/209/31
f 263/216/37 169/49/38 252/217/38
f 177/51/28 261/213/127 248/207/28
f 252/217/38 164/53/39 260/218/39
f 247/206/26 171/55/40 253/219/40
f 253/219/40 178/47/36 262/215/36
f 250/220/41 170/50/37 263/216/37
f 200/221/129 279/222/130 280/223/131
f 244/224/132 615/225/75 283/226/133
f 255/227/49 280/223/131 284/228/50
f 143/229/134 197/230/37 147/231/135
f 149/232/136 195/233/36 163/234/137
f 159/235/138 198/236/54 149/232/136
f 145/237/118 193/238/39 135/239/119
f 161/240/139 194/241/140 155/242/124
f 147/231/135 196/243/141 145/237/118
f 163/234/137 191/244/64 139/245/142
f 155/242/124 186/246/65 153/247/143
f 224/248/2 192/249/144 137/250/145
f 139/245/142 189/251/52 142/252/146
f 157/253/147 187/254/148 161/240/139
f 152/255/149 184/256/26 159/235/138
f 180/257/150 281/258/151 278/259/130
f 211/260/152 162/261/137 138/262/142
f 237/263/46 210/203/125 234/187/111
f 205/264/114 158/265/153 148/266/154
f 235/267/46 214/200/122 237/263/46
f 228/176/103 207/268/155 202/195/117
f 208/269/156 138/262/142 140/270/157
f 215/271/113 148/266/154 162/261/137
f 203/272/158 154/202/124 150/273/143
f 206/274/107 141/275/157 146/276/159
f 207/268/155 146/276/159 144/196/118
f 213/277/104 151/278/160 158/265/153
f 227/279/2 134/197/119 223/280/2
f 218/281/130 201/282/161 136/283/162
f 264/284/50 192/249/144 251/212/87
f 245/285/133 448/286/163 239/287/164
f 221/288/131 137/250/145 192/249/144
f 201/282/161 223/280/2 136/283/162
f 135/239/119 226/289/2 224/248/2
f 260/218/39 225/42/2 265/211/2
f 448/286/163 246/177/2 239/287/164
f 239/287/164 227/279/2 201/282/161
f 222/290/165 239/287/164 201/282/161
f 449/291/103 241/183/108 228/176/103
s 0
f 483/292/46 237/263/46 489/293/46
s 1
f 489/293/46 234/187/111 480/294/166
f 217/295/167 283/226/133 281/258/151
f 242/193/116 215/271/113 211/260/152
f 240/190/114 213/277/104 205/264/114
f 232/194/109 211/260/152 208/269/156
f 238/191/115 205/264/114 215/271/113
f 229/188/112 210/203/125 203/272/158
f 231/182/107 209/296/168 206/274/107
f 241/183/108 206/274/107 207/268/155
f 236/180/104 204/297/169 213/277/104
f 246/177/2 202/195/117 227/279/2
f 193/238/39 265/211/2 226/289/2
f 220/139/50 251/212/87 165/41/32
f 183/140/95 284/228/50 282/141/50
f 190/298/52 263/216/37 197/230/37
f 198/236/54 262/215/36 195/233/36
f 184/256/26 253/219/40 198/236/54
f 196/243/141 260/218/39 193/238/39
f 248/207/28 194/241/140 187/254/148
f 197/230/37 252/217/38 196/243/141
f 195/233/36 259/209/31 191/244/64
f 194/241/140 257/214/128 186/246/65
f 226/289/2 251/212/87 192/249/144
f 191/244/64 249/210/41 189/251/52
f 258/208/28 187/254/148 188/299/148
f 185/300/70 247/206/26 184/256/26
s 0
f 273/144/97 271/301/97 272/302/97
f 269/303/97 274/304/97 275/305/97
f 272/302/97 268/306/97 276/307/97
f 270/308/97 611/309/97 274/304/97
f 266/310/97 275/305/97 277/311/97
f 276/307/97 266/310/97 277/311/97
s 1
f 199/312/129 277/311/97 179/313/170
f 277/311/97 216/314/171 179/313/170
f 274/304/97 508/315/172 243/316/173
f 254/317/49 276/307/97 199/312/129
f 275/305/97 243/316/173 216/314/171
f 182/163/102 272/302/97 254/317/49
s 0
f 282/141/50 264/284/50 220/139/50
s 1
f 222/290/165 283/226/133 245/285/133
f 218/281/130 281/258/151 222/290/165
f 284/228/50 221/288/131 264/284/50
f 283/226/133 552/318/75 245/285/133
f 280/223/131 219/319/130 221/288/131
s 0
f 622/320/97 285/321/97 286/322/97
f 286/322/97 288/323/97 287/324/97
f 287/324/97 268/306/97 271/301/97
f 269/303/97 268/306/97 288/323/97
f 270/308/97 288/323/97 285/321/97
f 599/325/97 285/321/97 621/326/97
f 290/173/97 286/322/97 287/324/97
s 1
f 289/174/97 622/320/97 286/322/97
s 0
f 267/146/97 287/324/97 271/301/97
s 1
f 380/2/2 385/327/1 403/328/2
f 329/5/4 387/329/3 393/330/4
f 318/8/6 388/331/5 398/332/7
f 319/11/5 390/333/8 388/331/5
f 322/13/10 391/334/9 386/335/11
f 335/16/13 397/336/12 395/337/174
f 316/19/8 399/338/14 389/339/8
f 359/340/15 303/341/175 293/342/176
f 369/343/177 330/344/178 371/345/177
f 320/27/21 393/330/4 397/336/12
f 371/345/177 313/346/179 367/347/180
f 315/30/24 395/337/174 399/338/14
f 414/348/181 505/349/182 404/350/182
s 0
f 504/351/50 405/352/50 415/353/50
s 1
f 416/354/183 496/355/184 406/356/185
f 422/357/2 494/358/186 408/359/187
f 418/360/188 501/361/189 413/362/190
f 419/363/191 495/364/183 416/354/183
f 420/365/192 498/366/193 409/367/193
f 506/368/50 418/360/188 405/352/50
f 409/367/193 493/369/194 417/370/194
f 404/350/182 500/371/195 410/372/195
f 410/372/195 507/373/191 419/363/191
f 407/374/185 499/375/192 420/365/192
f 357/376/196 436/377/197 438/378/198
f 401/379/199 437/62/46 440/380/200
f 412/381/201 438/378/198 441/382/28
f 302/383/202 354/384/192 306/385/203
f 308/386/204 352/387/191 334/388/205
f 328/389/206 355/390/207 308/386/204
f 304/391/175 350/392/194 294/393/176
f 344/394/208 314/395/179 331/396/209
f 306/385/203 353/397/210 304/391/175
f 334/388/205 348/398/211 298/399/212
f 314/395/179 343/400/213 312/401/214
f 382/402/2 349/403/215 296/404/216
f 298/399/212 346/405/217 301/406/218
f 345/407/219 331/396/209 325/408/209
f 311/409/220 341/410/182 328/389/206
f 339/411/221 439/412/222 435/413/223
f 368/414/74 333/415/205 297/416/212
f 394/417/75 367/347/180 391/334/9
f 362/418/12 327/419/224 307/420/225
f 392/421/75 371/345/177 394/417/75
f 385/327/1 364/422/226 359/340/15
f 365/423/77 297/416/212 299/424/227
f 372/425/13 307/420/225 333/415/205
f 360/426/79 313/346/179 309/427/214
f 363/428/5 300/429/227 305/430/228
f 364/422/226 305/430/228 303/341/175
f 370/431/4 310/432/229 327/419/224
f 384/433/2 293/342/176 381/434/2
f 375/435/223 358/436/230 295/437/231
f 421/438/28 349/403/215 408/359/187
f 402/439/200 291/124/88 396/440/232
f 378/441/198 296/404/216 349/403/215
f 358/436/230 381/434/2 295/437/231
f 294/393/176 383/442/2 382/402/2
f 417/370/194 558/443/2 422/357/2
f 291/124/88 403/328/2 396/440/232
f 396/440/232 384/433/2 358/436/230
f 379/444/233 396/440/232 358/436/230
f 292/132/1 398/332/7 385/327/1
s 0
f 332/134/75 392/421/75 394/417/75
s 1
f 332/134/75 391/334/9 323/135/92
f 374/445/234 440/380/200 439/412/222
f 399/338/14 372/425/13 368/414/74
f 397/336/12 370/431/4 362/418/12
f 389/339/8 368/414/74 365/423/77
f 395/337/174 362/418/12 372/425/13
f 386/335/11 367/347/180 360/426/79
f 388/331/5 366/446/235 363/428/5
f 398/332/7 363/428/5 364/422/226
f 393/330/4 361/447/94 370/431/4
f 403/328/2 359/340/15 384/433/2
f 350/392/194 422/357/2 383/442/2
f 551/448/28 408/359/187 494/358/186
f 514/449/236 441/382/28 618/450/28
f 347/451/217 420/365/192 354/384/192
f 355/390/207 419/363/191 352/387/191
f 341/410/182 410/372/195 355/390/207
f 353/397/210 417/370/194 350/392/194
f 405/352/50 351/452/237 344/394/208
f 354/384/192 409/367/193 353/397/210
f 352/387/191 416/354/183 348/398/211
f 351/452/237 413/362/190 343/400/213
f 383/442/2 408/359/187 349/403/215
f 348/398/211 406/356/185 346/405/217
f 415/353/50 344/394/208 345/407/219
f 342/453/238 404/350/182 341/410/182
s 0
f 607/454/97 428/455/97 429/456/97
f 426/457/97 430/458/97 431/459/97
f 429/456/97 425/460/97 432/461/97
f 427/462/97 433/152/97 430/458/97
f 424/463/97 431/459/97 434/464/97
f 432/461/97 424/463/97 434/464/97
s 1
f 356/465/239 434/464/97 338/466/240
f 434/464/97 373/467/241 338/466/240
f 430/458/97 336/160/100 400/468/242
f 411/469/201 432/461/97 356/465/239
f 431/459/97 400/468/242 373/467/241
f 513/470/243 429/456/97 411/469/201
s 0
f 618/450/28 421/438/28 551/448/28
s 1
f 439/412/222 402/439/200 379/444/233
f 435/413/223 379/444/233 375/435/223
f 441/382/28 378/441/198 421/438/28
f 440/380/200 377/164/46 402/439/200
f 438/378/198 376/471/197 378/441/198
s 0
f 443/167/97 444/472/97 445/473/97
f 445/473/97 447/474/97 446/475/97
s 1
f 446/475/97 425/460/97 428/455/97
s 0
f 426/457/97 425/460/97 447/474/97
f 427/462/97 447/474/97 444/472/97
f 423/171/97 444/472/97 442/172/97
f 629/476/97 445/473/97 446/475/97
f 628/477/97 443/167/97 445/473/97
f 601/478/97 446/475/97 428/455/97
s 1
f 561/479/103 555/175/2 579/480/2
f 562/481/105 486/178/104 569/482/104
f 564/483/107 475/181/106 574/484/106
f 566/485/109 476/184/107 564/483/107
f 567/486/111 479/186/110 563/487/244
f 573/488/123 492/189/113 571/489/115
f 575/490/116 473/192/109 565/491/109
f 533/492/117 460/493/245 538/494/246
f 488/495/247 543/496/248 545/497/249
f 569/482/104 477/201/123 573/488/123
f 471/498/250 545/497/249 541/499/251
f 571/489/115 472/204/126 575/490/116
f 590/500/181 505/349/182 502/501/252
s 0
f 581/502/50 504/351/50 591/503/50
s 1
f 592/504/183 496/355/184 495/364/183
f 598/505/2 494/358/186 558/443/2
f 594/506/253 501/361/189 503/507/254
f 595/508/191 495/364/183 507/373/191
f 596/509/192 498/366/193 499/375/192
f 594/506/253 506/368/50 581/502/50
f 585/510/255 493/369/194 498/366/193
f 580/511/182 500/371/195 505/349/182
f 586/512/195 507/373/191 500/371/195
f 583/513/185 499/375/192 497/514/185
f 614/515/256 531/516/257 616/517/258
f 615/225/75 576/518/259 619/519/260
f 616/517/258 588/520/201 620/521/28
f 459/522/261 528/523/192 521/524/217
f 465/525/262 526/526/191 529/527/207
f 485/528/263 529/527/207 515/529/182
f 461/530/264 524/531/194 527/532/265
f 470/533/250 518/534/266 487/535/267
f 463/536/268 527/532/265 528/523/192
f 491/537/269 522/538/211 526/526/191
f 470/533/250 516/539/213 525/540/270
f 557/541/2 523/542/271 559/543/2
f 455/544/272 520/545/217 522/538/211
f 487/535/267 519/546/266 481/547/273
f 469/548/274 515/529/182 517/549/238
f 617/550/275 510/551/276 613/552/277
f 490/553/269 542/554/152 454/555/272
f 541/499/251 570/556/46 567/486/111
f 484/557/278 536/558/114 464/559/262
f 545/497/249 568/560/46 570/556/46
f 561/479/103 538/494/246 574/484/106
f 454/555/272 539/561/156 456/562/261
f 464/559/262 546/563/113 490/553/269
f 471/498/250 535/564/158 468/565/279
f 457/566/261 537/567/107 462/568/268
f 462/568/268 538/494/246 460/493/245
f 467/569/280 544/570/104 484/557/278
f 450/571/281 560/572/2 556/573/2
f 532/574/282 549/575/277 452/576/283
f 523/542/271 597/577/28 584/578/187
f 448/286/163 578/579/260 572/580/284
f 453/581/285 553/582/258 523/542/271
f 556/573/2 532/574/282 452/576/283
f 451/583/281 559/543/2 524/531/194
f 593/584/194 558/443/2 493/369/194
f 579/480/2 448/286/163 572/580/284
f 560/572/2 572/580/284 532/574/282
f 572/580/284 554/585/286 532/574/282
f 449/291/103 574/484/106 475/181/106
s 0
f 489/293/46 568/560/46 483/292/46
s 1
f 567/486/111 489/293/46 480/294/166
f 619/519/260 547/586/287 617/550/275
f 546/563/113 575/490/116 542/554/152
f 544/570/104 573/488/123 536/558/114
f 542/554/152 565/491/109 539/561/156
f 536/558/114 571/489/115 546/563/113
f 541/499/251 563/487/244 535/564/158
f 540/587/156 564/483/107 537/567/107
f 537/567/107 574/484/106 538/494/246
f 534/588/169 569/482/104 544/570/104
f 533/492/117 579/480/2 560/572/2
f 524/531/194 598/505/2 593/584/194
f 584/578/187 551/448/28 494/358/186
f 620/521/28 514/449/236 618/450/28
f 521/524/217 596/509/192 583/513/185
f 529/527/207 595/508/191 586/512/195
f 515/529/182 586/512/195 580/511/182
f 527/532/265 593/584/194 585/510/255
f 525/540/270 581/502/50 518/534/266
f 528/523/192 585/510/255 596/509/192
f 526/526/191 592/504/183 595/508/191
f 525/540/270 589/589/288 594/506/253
f 559/543/2 584/578/187 598/505/2
f 522/538/211 582/590/185 592/504/183
f 518/534/266 591/503/50 519/546/266
f 517/549/238 580/511/182 590/500/181
s 0
f 607/454/97 605/591/97 601/478/97
f 608/592/97 603/593/97 609/594/97
f 606/595/97 602/596/97 605/591/97
f 611/309/97 604/597/97 608/592/97
f 609/594/97 600/598/97 612/599/97
f 610/600/97 600/598/97 602/596/97
s 1
f 530/601/257 612/599/97 610/600/97
f 548/602/289 612/599/97 511/603/290
f 508/315/172 608/592/97 577/604/291
f 587/605/201 610/600/97 606/595/97
f 577/604/291 609/594/97 548/602/289
f 513/470/243 606/595/97 607/454/97
s 0
f 597/577/28 618/450/28 551/448/28
s 1
f 578/579/260 617/550/275 554/585/286
f 554/585/286 613/552/277 549/575/277
f 553/582/258 620/521/28 597/577/28
f 552/318/75 619/519/260 578/579/260
f 550/606/256 616/517/258 553/582/258
s 0
f 623/607/97 622/320/97 624/608/97
f 626/609/97 624/608/97 625/610/97
f 602/596/97 625/610/97 605/591/97
f 602/596/97 603/593/97 626/609/97
f 626/609/97 604/597/97 623/607/97
f 623/607/97 599/325/97 621/326/97
f 624/608/97 629/476/97 625/610/97
f 622/320/97 628/477/97 624/608/97
f 625/610/97 601/478/97 605/591/97
s 1
f 76/1/1 292/132/1 380/2/2
f 77/4/3 321/611/10 329/5/4
f 79/7/5 319/11/5 318/8/6
f 81/10/8 317/612/8 319/11/5
f 82/12/9 323/135/92 322/13/10
f 88/15/12 320/27/21 335/16/13
f 90/18/14 315/30/24 316/19/8
f 52/21/15 1/116/84 11/22/16
f 28/24/18 24/613/292 62/25/19
f 84/6/4 329/5/4 320/27/21
f 22/28/22 28/24/18 64/26/20
f 86/17/13 335/16/13 315/30/24
f 105/31/25 95/54/26 176/32/26
s 0
f 96/34/28 177/51/28 175/35/28
s 1
f 107/37/29 97/143/41 167/38/30
f 113/40/2 99/123/87 165/41/32
f 109/43/33 104/142/96 172/44/34
f 110/46/36 107/37/29 166/39/31
f 111/48/37 100/52/38 169/49/38
f 109/43/33 174/45/35 177/51/28
f 100/52/38 108/130/39 164/53/39
f 95/54/26 101/56/40 171/55/40
f 101/56/40 110/46/36 178/47/36
f 98/57/41 111/48/37 170/50/37
f 125/59/43 33/614/72 50/60/44
f 437/62/46 337/615/100 92/63/47
f 126/61/45 50/60/44 103/65/49
f 10/67/51 14/81/62 47/68/37
f 16/70/53 30/82/63 45/71/36
f 26/73/55 16/70/53 48/72/54
f 12/75/56 2/129/84 43/76/57
f 27/78/59 21/84/22 44/79/60
f 14/81/62 12/75/56 46/77/58
f 30/82/63 6/89/67 41/83/64
f 21/84/22 17/616/80 35/85/65
f 73/86/2 4/127/90 42/87/66
f 6/89/67 9/617/81 39/90/52
f 23/91/68 27/78/59 37/80/61
f 20/93/69 26/73/55 34/74/26
f 127/95/71 66/136/93 31/96/72
f 29/98/73 65/108/13 61/99/74
f 60/29/23 64/26/20 85/101/75
f 25/102/76 63/115/4 55/103/12
f 64/26/20 62/25/19 83/105/75
f 76/1/1 52/21/15 57/23/17
f 5/100/67 61/99/74 58/106/77
f 15/104/53 55/103/12 65/108/13
f 22/28/22 60/29/23 54/109/79
f 8/111/81 59/137/77 56/112/5
f 13/113/82 56/112/5 57/23/17
f 18/114/83 53/138/94 63/115/4
f 1/116/84 52/21/15 75/117/2
f 51/119/85 71/131/91 68/120/43
f 42/87/66 70/128/45 112/122/50
f 291/124/88 377/164/46 93/125/48
f 4/127/90 69/165/43 70/128/45
f 72/118/2 75/117/2 51/119/85
f 2/129/84 73/86/2 74/88/2
f 108/130/39 113/40/2 225/42/2
f 94/3/2 380/2/2 291/124/88
f 75/117/2 94/3/2 87/126/89
f 87/126/89 93/125/48 71/131/91
f 292/132/1 76/1/1 89/9/7
s 0
f 85/101/75 83/105/75 326/133/75
s 1
f 82/12/9 85/101/75 332/134/75
f 128/64/48 92/63/47 66/136/93
f 65/108/13 86/17/13 90/18/14
f 63/115/4 84/6/4 88/15/12
f 61/99/74 90/18/14 80/20/8
f 55/103/12 88/15/12 86/17/13
f 60/29/23 82/12/9 78/14/11
f 59/137/77 81/10/8 79/7/5
f 56/112/5 79/7/5 89/9/7
f 53/138/94 77/4/3 84/6/4
f 52/21/15 76/1/1 94/3/2
f 43/76/57 74/88/2 113/40/2
f 99/123/87 112/122/50 220/139/50
f 129/66/50 103/65/49 183/140/95
f 40/69/52 47/68/37 111/48/37
f 48/72/54 45/71/36 110/46/36
f 34/74/26 48/72/54 101/56/40
f 46/77/58 43/76/57 108/130/39
f 44/79/60 109/43/33 96/34/28
f 47/68/37 46/77/58 100/52/38
f 45/71/36 41/83/64 107/37/29
f 44/79/60 35/85/65 104/142/96
f 74/88/2 42/87/66 99/123/87
f 41/83/64 39/90/52 97/143/41
f 37/80/61 96/34/28 106/36/28
f 36/94/70 34/74/26 95/54/26
s 0
f 273/144/97 119/150/97 118/145/97
f 120/147/97 117/153/97 116/148/97
f 119/150/97 122/156/97 115/151/97
f 433/152/97 423/171/97 117/153/97
f 121/149/97 116/148/97 114/154/97
f 122/156/97 123/155/97 114/154/97
s 1
f 49/157/44 32/159/99 123/155/97
f 67/158/98 121/149/97 123/155/97
f 336/160/100 433/152/97 120/147/97
f 102/162/49 49/157/44 122/156/97
f 91/161/101 120/147/97 121/149/97
f 182/163/102 102/162/49 119/150/97
s 0
f 112/122/50 129/66/50 282/141/50
s 1
f 71/131/91 93/125/48 128/64/48
f 68/120/43 71/131/91 127/95/71
f 70/128/45 126/61/45 129/66/50
f 377/164/46 437/62/46 128/64/48
f 69/165/43 125/59/43 126/61/45
s 0
f 130/166/97 442/172/97 443/167/97
f 133/169/97 130/166/97 131/168/97
f 115/151/97 133/169/97 132/170/97
f 115/151/97 114/154/97 116/148/97
f 133/169/97 116/148/97 117/153/97
f 130/166/97 117/153/97 423/171/97
f 131/168/97 289/174/97 290/173/97
f 443/167/97 627/618/97 289/174/97
f 132/170/97 290/173/97 267/146/97
s 1
f 555/175/2 449/291/103 228/176/103
f 486/178/104 478/619/110 230/179/105
f 475/181/106 476/184/107 231/182/107
f 476/184/107 474/620/109 233/185/109
f 479/186/110 480/294/166 234/187/111
f 492/189/113 477/201/123 240/190/114
f 473/192/109 472/204/126 242/193/116
f 202/195/117 207/268/155 144/196/118
f 212/198/120 156/621/139 160/199/121
f 477/201/123 486/178/104 236/180/104
f 214/200/122 160/199/121 154/202/124
f 472/204/126 492/189/113 238/191/115
f 256/205/25 173/33/27 176/32/26
s 0
f 175/35/28 177/51/28 248/207/28
s 1
f 259/209/31 166/39/31 167/38/30
f 265/211/2 225/42/2 165/41/32
f 261/213/127 174/45/35 172/44/34
f 262/215/36 178/47/36 166/39/31
f 263/216/37 170/50/37 169/49/38
f 177/51/28 174/45/35 261/213/127
f 252/217/38 169/49/38 164/53/39
f 247/206/26 176/32/26 171/55/40
f 253/219/40 171/55/40 178/47/36
f 250/220/41 168/58/42 170/50/37
f 200/221/129 181/622/170 279/222/130
f 244/224/132 509/623/172 615/225/75
f 255/227/49 200/221/129 280/223/131
f 143/229/134 190/298/52 197/230/37
f 149/232/136 198/236/54 195/233/36
f 159/235/138 184/256/26 198/236/54
f 145/237/118 196/243/141 193/238/39
f 161/240/139 187/254/148 194/241/140
f 147/231/135 197/230/37 196/243/141
f 163/234/137 195/233/36 191/244/64
f 155/242/124 194/241/140 186/246/65
f 224/248/2 226/289/2 192/249/144
f 139/245/142 191/244/64 189/251/52
f 157/253/147 188/299/148 187/254/148
f 152/255/149 185/300/70 184/256/26
f 180/257/150 217/295/167 281/258/151
f 211/260/152 215/271/113 162/261/137
f 237/263/46 214/200/122 210/203/125
f 205/264/114 213/277/104 158/265/153
f 235/267/46 212/198/120 214/200/122
f 228/176/103 241/183/108 207/268/155
f 208/269/156 211/260/152 138/262/142
f 215/271/113 205/264/114 148/266/154
f 203/272/158 210/203/125 154/202/124
f 206/274/107 209/296/168 141/275/157
f 207/268/155 206/274/107 146/276/159
f 213/277/104 204/297/169 151/278/160
f 227/279/2 202/195/117 134/197/119
f 218/281/130 222/290/165 201/282/161
f 264/284/50 221/288/131 192/249/144
f 245/285/133 552/318/75 448/286/163
f 221/288/131 219/319/130 137/250/145
f 201/282/161 227/279/2 223/280/2
f 135/239/119 193/238/39 226/289/2
f 260/218/39 164/53/39 225/42/2
f 448/286/163 555/175/2 246/177/2
f 239/287/164 246/177/2 227/279/2
f 222/290/165 245/285/133 239/287/164
f 449/291/103 475/181/106 241/183/108
s 0
f 483/292/46 235/267/46 237/263/46
s 1
f 489/293/46 237/263/46 234/187/111
f 217/295/167 244/224/132 283/226/133
f 242/193/116 238/191/115 215/271/113
f 240/190/114 236/180/104 213/277/104
f 232/194/109 242/193/116 211/260/152
f 238/191/115 240/190/114 205/264/114
f 229/188/112 234/187/111 210/203/125
f 231/182/107 233/185/109 209/296/168
f 241/183/108 231/182/107 206/274/107
f 236/180/104 230/179/105 204/297/169
f 246/177/2 228/176/103 202/195/117
f 193/238/39 260/218/39 265/211/2
f 220/139/50 264/284/50 251/212/87
f 183/140/95 255/227/49 284/228/50
f 190/298/52 250/220/41 263/216/37
f 198/236/54 253/219/40 262/215/36
f 184/256/26 247/206/26 253/219/40
f 196/243/141 252/217/38 260/218/39
f 248/207/28 261/213/127 194/241/140
f 197/230/37 263/216/37 252/217/38
f 195/233/36 262/215/36 259/209/31
f 194/241/140 261/213/127 257/214/128
f 226/289/2 265/211/2 251/212/87
f 191/244/64 259/209/31 249/210/41
f 258/208/28 248/207/28 187/254/148
f 185/300/70 256/205/25 247/206/26
s 0
f 273/144/97 267/146/97 271/301/97
f 269/303/97 270/308/97 274/304/97
f 272/302/97 271/301/97 268/306/97
f 270/308/97 599/325/97 611/309/97
f 266/310/97 269/303/97 275/305/97
f 276/307/97 268/306/97 266/310/97
s 1
f 199/312/129 276/307/97 277/311/97
f 277/311/97 275/305/97 216/314/171
f 274/304/97 611/309/97 508/315/172
f 254/317/49 272/302/97 276/307/97
f 275/305/97 274/304/97 243/316/173
f 182/163/102 273/144/97 272/302/97
s 0
f 282/141/50 284/228/50 264/284/50
s 1
f 222/290/165 281/258/151 283/226/133
f 218/281/130 278/259/130 281/258/151
f 284/228/50 280/223/131 221/288/131
f 283/226/133 615/225/75 552/318/75
f 280/223/131 279/222/130 219/319/130
s 0
f 622/320/97 621/326/97 285/321/97
f 286/322/97 285/321/97 288/323/97
f 287/324/97 288/323/97 268/306/97
f 269/303/97 266/310/97 268/306/97
f 270/308/97 269/303/97 288/323/97
f 599/325/97 270/308/97 285/321/97
f 290/173/97 289/174/97 286/322/97
s 1
f 289/174/97 627/618/97 622/320/97
s 0
f 267/146/97 290/173/97 287/324/97
s 1
f 380/2/2 292/132/1 385/327/1
f 329/5/4 321/611/10 387/329/3
f 318/8/6 319/11/5 388/331/5
f 319/11/5 317/612/8 390/333/8
f 322/13/10 323/135/92 391/334/9
f 335/16/13 320/27/21 397/336/12
f 316/19/8 315/30/24 399/338/14
f 359/340/15 364/422/226 303/341/175
f 369/343/177 324/624/178 330/344/178
f 320/27/21 329/5/4 393/330/4
f 371/345/177 330/344/178 313/346/179
f 315/30/24 335/16/13 395/337/174
f 414/348/181 502/501/252 505/349/182
s 0
f 504/351/50 506/368/50 405/352/50
s 1
f 416/354/183 495/364/183 496/355/184
f 422/357/2 558/443/2 494/358/186
f 418/360/188 503/507/254 501/361/189
f 419/363/191 507/373/191 495/364/183
f 420/365/192 499/375/192 498/366/193
f 506/368/50 503/507/254 418/360/188
f 409/367/193 498/366/193 493/369/194
f 404/350/182 505/349/182 500/371/195
f 410/372/195 500/371/195 507/373/191
f 407/374/185 497/514/185 499/375/192
f 357/376/196 340/625/240 436/377/197
f 401/379/199 337/615/100 437/62/46
f 412/381/201 357/376/196 438/378/198
f 302/383/202 347/451/217 354/384/192
f 308/386/204 355/390/207 352/387/191
f 328/389/206 341/410/182 355/390/207
f 304/391/175 353/397/210 350/392/194
f 344/394/208 351/452/237 314/395/179
f 306/385/203 354/384/192 353/397/210
f 334/388/205 352/387/191 348/398/211
f 314/395/179 351/452/237 343/400/213
f 382/402/2 383/442/2 349/403/215
f 298/399/212 348/398/211 346/405/217
f 345/407/219 344/394/208 331/396/209
f 311/409/220 342/453/238 341/410/182
f 339/411/221 374/445/234 439/412/222
f 368/414/74 372/425/13 333/415/205
f 394/417/75 371/345/177 367/347/180
f 362/418/12 370/431/4 327/419/224
f 392/421/75 369/343/177 371/345/177
f 385/327/1 398/332/7 364/422/226
f 365/423/77 368/414/74 297/416/212
f 372/425/13 362/418/12 307/420/225
f 360/426/79 367/347/180 313/346/179
f 363/428/5 366/446/235 300/429/227
f 364/422/226 363/428/5 305/430/228
f 370/431/4 361/447/94 310/432/229
f 384/433/2 359/340/15 293/342/176
f 375/435/223 379/444/233 358/436/230
f 421/438/28 378/441/198 349/403/215
f 402/439/200 377/164/46 291/124/88
f 378/441/198 376/471/197 296/404/216
f 358/436/230 384/433/2 381/434/2
f 294/393/176 350/392/194 383/442/2
f 417/370/194 493/369/194 558/443/2
f 291/124/88 380/2/2 403/328/2
f 396/440/232 403/328/2 384/433/2
f 379/444/233 402/439/200 396/440/232
f 292/132/1 318/8/6 398/332/7
s 0
f 332/134/75 326/133/75 392/421/75
s 1
f 332/134/75 394/417/75 391/334/9
f 374/445/234 401/379/199 440/380/200
f 399/338/14 395/337/174 372/425/13
f 397/336/12 393/330/4 370/431/4
f 389/339/8 399/338/14 368/414/74
f 395/337/174 397/336/12 362/418/12
f 386/335/11 391/334/9 367/347/180
f 388/331/5 390/333/8 366/446/235
f 398/332/7 388/331/5 363/428/5
f 393/330/4 387/329/3 361/447/94
f 403/328/2 385/327/1 359/340/15
f 350/392/194 417/370/194 422/357/2
f 551/448/28 421/438/28 408/359/187
f 514/449/236 412/381/201 441/382/28
f 347/451/217 407/374/185 420/365/192
f 355/390/207 410/372/195 419/363/191
f 341/410/182 404/350/182 410/372/195
f 353/397/210 409/367/193 417/370/194
f 405/352/50 418/360/188 351/452/237
f 354/384/192 420/365/192 409/367/193
f 352/387/191 419/363/191 416/354/183
f 351/452/237 418/360/188 413/362/190
f 383/442/2 422/357/2 408/359/187
f 348/398/211 416/354/183 406/356/185
f 415/353/50 405/352/50 344/394/208
f 342/453/238 414/348/181 404/350/182
s 0
f 607/454/97 601/478/97 428/455/97
f 426/457/97 427/462/97 430/458/97
f 429/456/97 428/455/97 425/460/97
f 427/462/97 423/171/97 433/152/97
f 424/463/97 426/457/97 431/459/97
f 432/461/97 425/460/97 424/463/97
s 1
f 356/465/239 432/461/97 434/464/97
f 434/464/97 431/459/97 373/467/241
f 430/458/97 433/152/97 336/160/100
f 411/469/201 429/456/97 432/461/97
f 431/459/97 430/458/97 400/468/242
f 513/470/243 607/454/97 429/456/97
s 0
f 618/450/28 441/382/28 421/438/28
s 1
f 439/412/222 440/380/200 402/439/200
f 435/413/223 439/412/222 379/444/233
f 441/382/28 438/378/198 378/441/198
f 440/380/200 437/62/46 377/164/46
f 438/378/198 436/377/197 376/471/197
s 0
f 443/167/97 442/172/97 444/472/97
f 445/473/97 444/472/97 447/474/97
f 446/475/97 447/474/97 425/460/97
f 426/457/97 424/463/97 425/460/97
f 427/462/97 426/457/97 447/474/97
f 423/171/97 427/462/97 444/472/97
f 629/476/97 628/477/97 445/473/97
f 628/477/97 627/618/97 443/167/97
f 601/478/97 629/476/97 446/475/97
s 1
f 561/479/103 449/291/103 555/175/2
f 562/481/105 478/619/110 486/178/104
f 564/483/107 476/184/107 475/181/106
f 566/485/109 474/620/109 476/184/107
f 567/486/111 480/294/166 479/186/110
f 573/488/123 477/201/123 492/189/113
f 575/490/116 472/204/126 473/192/109
f 533/492/117 450/571/281 460/493/245
f 488/495/247 482/626/267 543/496/248
f 569/482/104 486/178/104 477/201/123
f 471/498/250 488/495/247 545/497/249
f 571/489/115 492/189/113 472/204/126
f 590/500/181 580/511/182 505/349/182
s 0
f 581/502/50 506/368/50 504/351/50
s 1
f 592/504/183 582/590/185 496/355/184
f 598/505/2 584/578/187 494/358/186
f 594/506/253 589/589/288 501/361/189
f 595/508/191 592/504/183 495/364/183
f 596/509/192 585/510/255 498/366/193
f 594/506/253 503/507/254 506/368/50
f 585/510/255 593/584/194 493/369/194
f 580/511/182 586/512/195 500/371/195
f 586/512/195 595/508/191 507/373/191
f 583/513/185 596/509/192 499/375/192
f 614/515/256 512/627/276 531/516/257
f 615/225/75 509/623/172 576/518/259
f 616/517/258 531/516/257 588/520/201
f 459/522/261 463/536/268 528/523/192
f 465/525/262 491/537/269 526/526/191
f 485/528/263 465/525/262 529/527/207
f 461/530/264 451/583/281 524/531/194
f 470/533/250 525/540/270 518/534/266
f 463/536/268 461/530/264 527/532/265
f 491/537/269 455/544/272 522/538/211
f 470/533/250 466/628/279 516/539/213
f 557/541/2 453/581/285 523/542/271
f 455/544/272 458/629/261 520/545/217
f 487/535/267 518/534/266 519/546/266
f 469/548/274 485/528/263 515/529/182
f 617/550/275 547/586/287 510/551/276
f 490/553/269 546/563/113 542/554/152
f 541/499/251 545/497/249 570/556/46
f 484/557/278 544/570/104 536/558/114
f 545/497/249 543/496/248 568/560/46
f 561/479/103 533/492/117 538/494/246
f 454/555/272 542/554/152 539/561/156
f 464/559/262 536/558/114 546/563/113
f 471/498/250 541/499/251 535/564/158
f 457/566/261 540/587/156 537/567/107
f 462/568/268 537/567/107 538/494/246
f 467/569/280 534/588/169 544/570/104
f 450/571/281 533/492/117 560/572/2
f 532/574/282 554/585/286 549/575/277
f 523/542/271 553/582/258 597/577/28
f 448/286/163 552/318/75 578/579/260
f 453/581/285 550/606/256 553/582/258
f 556/573/2 560/572/2 532/574/282
f 451/583/281 557/541/2 559/543/2
f 593/584/194 598/505/2 558/443/2
f 579/480/2 555/175/2 448/286/163
f 560/572/2 579/480/2 572/580/284
f 572/580/284 578/579/260 554/585/286
f 449/291/103 561/479/103 574/484/106
s 0
f 489/293/46 570/556/46 568/560/46
s 1
f 567/486/111 570/556/46 489/293/46
f 619/519/260 576/518/259 547/586/287
f 546/563/113 571/489/115 575/490/116
f 544/570/104 569/482/104 573/488/123
f 542/554/152 575/490/116 565/491/109
f 536/558/114 573/488/123 571/489/115
f 541/499/251 567/486/111 563/487/244
f 540/587/156 566/485/109 564/483/107
f 537/567/107 564/483/107 574/484/106
f 534/588/169 562/481/105 569/482/104
f 533/492/117 561/479/103 579/480/2
f 524/531/194 559/543/2 598/505/2
f 584/578/187 597/577/28 551/448/28
f 620/521/28 588/520/201 514/449/236
f 521/524/217 528/523/192 596/509/192
f 529/527/207 526/526/191 595/508/191
f 515/529/182 529/527/207 586/512/195
f 527/532/265 524/531/194 593/584/194
f 525/540/270 594/506/253 581/502/50
f 528/523/192 527/532/265 585/510/255
f 526/526/191 522/538/211 592/504/183
f 525/540/270 516/539/213 589/589/288
f 559/543/2 523/542/271 584/578/187
f 522/538/211 520/545/217 582/590/185
f 518/534/266 581/502/50 591/503/50
f 517/549/238 515/529/182 580/511/182
s 0
f 607/454/97 606/595/97 605/591/97
f 608/592/97 604/597/97 603/593/97
f 606/595/97 610/600/97 602/596/97
f 611/309/97 599/325/97 604/597/97
f 609/594/97 603/593/97 600/598/97
f 610/600/97 612/599/97 600/598/97
s 1
f 530/601/257 511/603/290 612/599/97
f 548/602/289 609/594/97 612/599/97
f 508/315/172 611/309/97 608/592/97
f 587/605/201 530/601/257 610/600/97
f 577/604/291 608/592/97 609/594/97
f 513/470/243 587/605/201 606/595/97
s 0
f 597/577/28 620/521/28 618/450/28
s 1
f 578/579/260 619/519/260 617/550/275
f 554/585/286 617/550/275 613/552/277
f 553/582/258 616/517/258 620/521/28
f 552/318/75 615/225/75 619/519/260
f 550/606/256 614/515/256 616/517/258
s 0
f 623/607/97 621/326/97 622/320/97
f 626/609/97 623/607/97 624/608/97
f 602/596/97 626/609/97 625/610/97
f 602/596/97 600/598/97 603/593/97
f 626/609/97 603/593/97 604/597/97
f 623/607/97 604/597/97 599/325/97
f 624/608/97 628/477/97 629/476/97
f 622/320/97 627/618/97 628/477/97
f 625/610/97 629/476/97 601/478/97
